<svg id="Capa_1" enable-background="new 0 0 493.548 493.548" height="512" viewBox="0 0 493.548 493.548" width="512" xmlns="http://www.w3.org/2000/svg"><g><g><path d="m197.419 345.484h32.904v-65.807h65.806v65.807h32.911v-82.258h-131.621z"/><path d="m246.774 296.129h32.903v49.355h-32.903z"/><path d="m253.84 167.864-80.712 66.045c1.645 7.354 8.218 12.865 16.057 12.865h148.089c7.839 0 14.412-5.511 16.049-12.873l-80.712-66.037c-5.281-4.319-13.49-4.319-18.771 0z"/><circle cx="263.226" cy="468.871" r="24.677"/><path d="m222.508 428.153 11.631 11.631c16.032-16.032 42.133-16.032 58.165 0l11.631-11.631c-22.448-22.448-58.97-22.448-81.427 0z"/><path d="m199.245 404.891 11.631 11.631c28.873-28.864 75.834-28.864 104.706 0l11.631-11.631c-35.287-35.281-92.687-35.281-127.968 0z"/><path d="m242.661 82.258h12.339v-26.956c-4.894-2.854-8.226-8.102-8.226-14.173 0-9.09 7.362-16.452 16.452-16.452s16.452 7.362 16.452 16.452c0 6.071-3.331 11.319-8.226 14.173v26.956h12.339l12.339-16.452c5.306-7.066 8.226-15.835 8.226-24.677-.001-22.679-18.452-41.129-41.13-41.129s-41.129 18.45-41.129 41.129c0 8.843 2.92 17.611 8.226 24.677z"/><path d="m246.774 106.935c0 4.532 3.693 8.226 8.226 8.226h16.452c4.532 0 8.226-3.693 8.226-8.226v-8.225h-32.903v8.225z"/><path d="m109.469 215.261 4.615-9.879-15.111-15.111-9.887 4.623-8.39-3.48-1.744-3.677-2.46-6.77h-21.371l-3.726 10.249-8.859 3.677-9.887-4.623-15.111 15.111 4.615 9.879-3.471 8.382-3.685 1.76-6.77 2.46v21.379l10.249 3.726 3.677 8.876-4.615 9.879 15.111 15.111 9.879-4.615 8.382 3.471 1.76 3.685 2.451 6.753h21.379l3.726-10.249 8.876-3.677 9.879 4.615 15.111-15.111-4.615-9.879 3.471-8.382 3.685-1.76 6.753-2.451v-21.379l-10.249-3.726zm-43.663 56.191c-18.171 0-32.903-14.732-32.903-32.903s14.732-32.903 32.903-32.903 32.903 14.732 32.903 32.903-14.732 32.903-32.903 32.903z"/><path d="m480.979 240.029-32.237-64.474c-.872-1.736-2.608-2.813-4.549-2.813s-3.677 1.078-4.549 2.805l-32.237 64.474c-2.838 5.692-4.343 12.059-4.343 18.409v4.796c0 22.679 18.451 41.129 41.129 41.129 22.679 0 41.129-18.45 41.129-41.129v-4.796c.001-6.35-1.505-12.717-4.343-18.401z"/></g></g></svg>