<?xml version="1.0" encoding="UTF-8" standalone="no"?>
<svg
   xmlns:dc="http://purl.org/dc/elements/1.1/"
   xmlns:cc="http://creativecommons.org/ns#"
   xmlns:rdf="http://www.w3.org/1999/02/22-rdf-syntax-ns#"
   xmlns:svg="http://www.w3.org/2000/svg"
   xmlns="http://www.w3.org/2000/svg"
   xmlns:sodipodi="http://sodipodi.sourceforge.net/DTD/sodipodi-0.dtd"
   xmlns:inkscape="http://www.inkscape.org/namespaces/inkscape"
   width="25"
   height="25"
   fill="currentColor"
   class="bi bi-kanban"
   viewBox="0 0 25 25"
   version="1.1"
   id="svg6"
   sodipodi:docname="analytics-white-25px.svg"
   inkscape:version="1.0.2 (e86c870879, 2021-01-15, custom)">
  <metadata
     id="metadata12">
    <rdf:RDF>
      <cc:Work
         rdf:about="">
        <dc:format>image/svg+xml</dc:format>
        <dc:type
           rdf:resource="http://purl.org/dc/dcmitype/StillImage" />
        <dc:title></dc:title>
      </cc:Work>
    </rdf:RDF>
  </metadata>
  <defs
     id="defs10" />
  <sodipodi:namedview
     pagecolor="#5271ff"
     bordercolor="#666666"
     borderopacity="1"
     objecttolerance="10"
     gridtolerance="10"
     guidetolerance="10"
     inkscape:pageopacity="0"
     inkscape:pageshadow="2"
     inkscape:window-width="1920"
     inkscape:window-height="1001"
     id="namedview8"
     showgrid="false"
     inkscape:zoom="25.9375"
     inkscape:cx="15.695109"
     inkscape:cy="12.623612"
     inkscape:window-x="-9"
     inkscape:window-y="41"
     inkscape:window-maximized="1"
     inkscape:current-layer="svg6" />
  <path
     d="m 21.09375,1.5625 a 1.5625,1.5625 0 0 1 1.5625,1.5625 v 18.75 a 1.5625,1.5625 0 0 1 -1.5625,1.5625 H 3.90625 A 1.5625,1.5625 0 0 1 2.34375,21.875 V 3.125 A 1.5625,1.5625 0 0 1 3.90625,1.5625 Z M 3.90625,0 a 3.125,3.125 0 0 0 -3.125,3.125 v 18.75 A 3.125,3.125 0 0 0 3.90625,25 h 17.1875 a 3.125,3.125 0 0 0 3.125,-3.125 V 3.125 A 3.125,3.125 0 0 0 21.09375,0 Z"
     id="path2"
     style="fill:#ffffff;fill-opacity:1;stroke-width:1.5625" />
  <path
     d="m 10.15625,4.6875 a 1.5625,1.5625 0 0 1 1.5625,-1.5625 h 1.5625 a 1.5625,1.5625 0 0 1 1.5625,1.5625 V 9.375 a 1.5625,1.5625 0 0 1 -1.5625,1.5625 h -1.5625 A 1.5625,1.5625 0 0 1 10.15625,9.375 Z m -6.25,0 A 1.5625,1.5625 0 0 1 5.46875,3.125 h 1.5625 a 1.5625,1.5625 0 0 1 1.5625,1.5625 V 15.625 a 1.5625,1.5625 0 0 1 -1.5625,1.5625 H 5.46875 A 1.5625,1.5625 0 0 1 3.90625,15.625 Z m 12.5,0 a 1.5625,1.5625 0 0 1 1.5625,-1.5625 h 1.5625 a 1.5625,1.5625 0 0 1 1.5625,1.5625 v 15.625 a 1.5625,1.5625 0 0 1 -1.5625,1.5625 h -1.5625 a 1.5625,1.5625 0 0 1 -1.5625,-1.5625 z"
     id="path4"
     style="fill:#ffffff;fill-opacity:1;stroke-width:1.5625" />
</svg>
