<?xml version="1.0" encoding="UTF-8" standalone="no"?>
<svg
   xmlns:dc="http://purl.org/dc/elements/1.1/"
   xmlns:cc="http://creativecommons.org/ns#"
   xmlns:rdf="http://www.w3.org/1999/02/22-rdf-syntax-ns#"
   xmlns:svg="http://www.w3.org/2000/svg"
   xmlns="http://www.w3.org/2000/svg"
   xmlns:sodipodi="http://sodipodi.sourceforge.net/DTD/sodipodi-0.dtd"
   xmlns:inkscape="http://www.inkscape.org/namespaces/inkscape"
   width="20"
   height="20"
   fill="currentColor"
   class="bi bi-kanban-fill"
   viewBox="0 0 20 20"
   version="1.1"
   id="svg4"
   sodipodi:docname="analytics-fill-white-20px.svg"
   inkscape:version="1.0.2 (e86c870879, 2021-01-15, custom)">
  <metadata
     id="metadata10">
    <rdf:RDF>
      <cc:Work
         rdf:about="">
        <dc:format>image/svg+xml</dc:format>
        <dc:type
           rdf:resource="http://purl.org/dc/dcmitype/StillImage" />
        <dc:title></dc:title>
      </cc:Work>
    </rdf:RDF>
  </metadata>
  <defs
     id="defs8" />
  <sodipodi:namedview
     pagecolor="#5271ff"
     bordercolor="#666666"
     borderopacity="1"
     objecttolerance="10"
     gridtolerance="10"
     guidetolerance="10"
     inkscape:pageopacity="0"
     inkscape:pageshadow="2"
     inkscape:window-width="1920"
     inkscape:window-height="1001"
     id="namedview6"
     showgrid="false"
     inkscape:zoom="18.340582"
     inkscape:cx="-0.592497"
     inkscape:cy="11.352823"
     inkscape:window-x="-9"
     inkscape:window-y="41"
     inkscape:window-maximized="1"
     inkscape:current-layer="svg4" />
  <path
     d="M 3,0 A 2.5,2.5 0 0 0 0.5,2.5 v 15 A 2.5,2.5 0 0 0 3,20 h 13.75 a 2.5,2.5 0 0 0 2.5,-2.5 V 2.5 A 2.5,2.5 0 0 0 16.75,0 Z m 6.25,2.5 h 1.25 a 1.25,1.25 0 0 1 1.25,1.25 V 7.5 A 1.25,1.25 0 0 1 10.5,8.75 H 9.25 A 1.25,1.25 0 0 1 8,7.5 V 3.75 A 1.25,1.25 0 0 1 9.25,2.5 Z M 3,3.75 A 1.25,1.25 0 0 1 4.25,2.5 H 5.5 A 1.25,1.25 0 0 1 6.75,3.75 V 12.5 A 1.25,1.25 0 0 1 5.5,13.75 H 4.25 A 1.25,1.25 0 0 1 3,12.5 Z M 14.25,2.5 h 1.25 a 1.25,1.25 0 0 1 1.25,1.25 v 12.5 A 1.25,1.25 0 0 1 15.5,17.5 H 14.25 A 1.25,1.25 0 0 1 13,16.25 V 3.75 A 1.25,1.25 0 0 1 14.25,2.5 Z"
     id="path2"
     style="stroke-width:1.25;fill:#ffffff;fill-opacity:1" />
</svg>
