<?xml version="1.0" encoding="UTF-8" standalone="no"?>
<svg
   xmlns:dc="http://purl.org/dc/elements/1.1/"
   xmlns:cc="http://creativecommons.org/ns#"
   xmlns:rdf="http://www.w3.org/1999/02/22-rdf-syntax-ns#"
   xmlns:svg="http://www.w3.org/2000/svg"
   xmlns="http://www.w3.org/2000/svg"
   xmlns:sodipodi="http://sodipodi.sourceforge.net/DTD/sodipodi-0.dtd"
   xmlns:inkscape="http://www.inkscape.org/namespaces/inkscape"
   width="35"
   height="35"
   fill="currentColor"
   class="bi bi-kanban"
   viewBox="0 0 35 35"
   version="1.1"
   id="svg6"
   sodipodi:docname="analytics-white-35px.svg"
   inkscape:version="1.0.2 (e86c870879, 2021-01-15, custom)">
  <metadata
     id="metadata12">
    <rdf:RDF>
      <cc:Work
         rdf:about="">
        <dc:format>image/svg+xml</dc:format>
        <dc:type
           rdf:resource="http://purl.org/dc/dcmitype/StillImage" />
        <dc:title></dc:title>
      </cc:Work>
    </rdf:RDF>
  </metadata>
  <defs
     id="defs10" />
  <sodipodi:namedview
     pagecolor="#39424e"
     bordercolor="#666666"
     borderopacity="1"
     objecttolerance="10"
     gridtolerance="10"
     guidetolerance="10"
     inkscape:pageopacity="0"
     inkscape:pageshadow="2"
     inkscape:window-width="1920"
     inkscape:window-height="1001"
     id="namedview8"
     showgrid="false"
     inkscape:zoom="12.96875"
     inkscape:cx="-4.9934722"
     inkscape:cy="19.184823"
     inkscape:window-x="-9"
     inkscape:window-y="41"
     inkscape:window-maximized="1"
     inkscape:current-layer="svg6" />
  <path
     d="m 29.53125,2.1875 a 2.1875,2.1875 0 0 1 2.1875,2.1875 v 26.25 a 2.1875,2.1875 0 0 1 -2.1875,2.1875 H 5.46875 A 2.1875,2.1875 0 0 1 3.28125,30.625 V 4.375 A 2.1875,2.1875 0 0 1 5.46875,2.1875 Z M 5.46875,0 a 4.375,4.375 0 0 0 -4.375,4.375 v 26.25 A 4.375,4.375 0 0 0 5.46875,35 h 24.0625 a 4.375,4.375 0 0 0 4.375,-4.375 V 4.375 A 4.375,4.375 0 0 0 29.53125,0 Z"
     id="path2"
     style="fill:#ffffff;fill-opacity:1;stroke-width:2.1875" />
  <path
     d="m 14.21875,6.5625 a 2.1875,2.1875 0 0 1 2.1875,-2.1875 h 2.1875 a 2.1875,2.1875 0 0 1 2.1875,2.1875 v 6.5625 a 2.1875,2.1875 0 0 1 -2.1875,2.1875 h -2.1875 a 2.1875,2.1875 0 0 1 -2.1875,-2.1875 z m -8.75,0 A 2.1875,2.1875 0 0 1 7.65625,4.375 h 2.1875 a 2.1875,2.1875 0 0 1 2.1875,2.1875 V 21.875 a 2.1875,2.1875 0 0 1 -2.1875,2.1875 H 7.65625 A 2.1875,2.1875 0 0 1 5.46875,21.875 Z m 17.5,0 a 2.1875,2.1875 0 0 1 2.1875,-2.1875 h 2.1875 a 2.1875,2.1875 0 0 1 2.1875,2.1875 v 21.875 a 2.1875,2.1875 0 0 1 -2.1875,2.1875 h -2.1875 a 2.1875,2.1875 0 0 1 -2.1875,-2.1875 z"
     id="path4"
     style="fill:#ffffff;fill-opacity:1;stroke-width:2.1875" />
</svg>
