<?xml version="1.0" encoding="UTF-8" standalone="no"?>
<svg
   xmlns:dc="http://purl.org/dc/elements/1.1/"
   xmlns:cc="http://creativecommons.org/ns#"
   xmlns:rdf="http://www.w3.org/1999/02/22-rdf-syntax-ns#"
   xmlns:svg="http://www.w3.org/2000/svg"
   xmlns="http://www.w3.org/2000/svg"
   xmlns:sodipodi="http://sodipodi.sourceforge.net/DTD/sodipodi-0.dtd"
   xmlns:inkscape="http://www.inkscape.org/namespaces/inkscape"
   width="25"
   height="25"
   fill="currentColor"
   class="bi bi-arrow-repeat"
   viewBox="0 0 25 25"
   version="1.1"
   id="svg6"
   sodipodi:docname="arrow-repeat-white-20px-in-25px.svg"
   inkscape:version="1.0.2 (e86c870879, 2021-01-15, custom)">
  <metadata
     id="metadata12">
    <rdf:RDF>
      <cc:Work
         rdf:about="">
        <dc:format>image/svg+xml</dc:format>
        <dc:type
           rdf:resource="http://purl.org/dc/dcmitype/StillImage" />
        <dc:title></dc:title>
      </cc:Work>
    </rdf:RDF>
  </metadata>
  <defs
     id="defs10" />
  <sodipodi:namedview
     pagecolor="#ffffff"
     bordercolor="#666666"
     borderopacity="1"
     objecttolerance="10"
     gridtolerance="10"
     guidetolerance="10"
     inkscape:pageopacity="0"
     inkscape:pageshadow="2"
     inkscape:window-width="1920"
     inkscape:window-height="1001"
     id="namedview8"
     showgrid="false"
     inkscape:zoom="18.340582"
     inkscape:cx="1.4743873"
     inkscape:cy="22.80505"
     inkscape:window-x="-9"
     inkscape:window-y="41"
     inkscape:window-maximized="1"
     inkscape:current-layer="svg6"
     inkscape:document-rotation="0" />
  <path
     d="m 17.08015,11.203976 h 5.095967 a 0.32400603,0.32400603 0 0 1 0.248836,0.531369 l -2.547983,3.058618 a 0.32400603,0.32400603 0 0 1 -0.497673,0 L 16.831314,11.735345 A 0.32400603,0.32400603 0 0 1 17.08015,11.203976 Z M 2.8238845,13.796024 h 5.0959669 a 0.32400603,0.32400603 0 0 0 0.2488365,-0.53137 L 5.6207046,10.206037 a 0.32400603,0.32400603 0 0 0 -0.4976734,0 l -2.5479833,3.058617 a 0.32400603,0.32400603 0 0 0 0.2488366,0.53137 z"
     id="path2"
     style="fill:#ffffff;fill-opacity:1;stroke-width:1.29602" />
  <path
     fill-rule="evenodd"
     d="m 12.500001,6.0198793 c -2.01143,0 -3.8103113,0.916289 -4.9987653,2.3561719 A 0.64801206,0.64801206 0 1 1 6.5020009,7.5517799 7.7787368,7.7787368 0 0 1 20.168575,11.203976 H 18.850519 A 6.4827126,6.4827126 0 0 0 12.500001,6.0198793 Z M 6.1494824,13.796024 A 6.4827126,6.4827126 0 0 0 17.498765,16.623949 0.64801206,0.64801206 0 1 1 18.498,17.44822 7.7787368,7.7787368 0 0 1 4.8314258,13.796024 Z"
     id="path4"
     style="fill:#ffffff;fill-opacity:1;stroke-width:1.29602" />
</svg>
