<?xml version="1.0" encoding="UTF-8" standalone="no"?>
<svg
   xmlns:dc="http://purl.org/dc/elements/1.1/"
   xmlns:cc="http://creativecommons.org/ns#"
   xmlns:rdf="http://www.w3.org/1999/02/22-rdf-syntax-ns#"
   xmlns:svg="http://www.w3.org/2000/svg"
   xmlns="http://www.w3.org/2000/svg"
   xmlns:sodipodi="http://sodipodi.sourceforge.net/DTD/sodipodi-0.dtd"
   xmlns:inkscape="http://www.inkscape.org/namespaces/inkscape"
   width="20"
   height="20"
   fill="currentColor"
   class="bi bi-arrow-repeat"
   viewBox="0 0 20 20"
   version="1.1"
   id="svg6"
   sodipodi:docname="arrow-repeat-white-16px-in-20px.svg"
   inkscape:version="1.0.2 (e86c870879, 2021-01-15, custom)">
  <metadata
     id="metadata12">
    <rdf:RDF>
      <cc:Work
         rdf:about="">
        <dc:format>image/svg+xml</dc:format>
        <dc:type
           rdf:resource="http://purl.org/dc/dcmitype/StillImage" />
        <dc:title></dc:title>
      </cc:Work>
    </rdf:RDF>
  </metadata>
  <defs
     id="defs10" />
  <sodipodi:namedview
     pagecolor="#ffffff"
     bordercolor="#666666"
     borderopacity="1"
     objecttolerance="10"
     gridtolerance="10"
     guidetolerance="10"
     inkscape:pageopacity="0"
     inkscape:pageshadow="2"
     inkscape:window-width="1920"
     inkscape:window-height="1001"
     id="namedview8"
     showgrid="false"
     inkscape:zoom="25.9375"
     inkscape:cx="5.2045911"
     inkscape:cy="11.539554"
     inkscape:window-x="-9"
     inkscape:window-y="41"
     inkscape:window-maximized="1"
     inkscape:current-layer="svg6"
     inkscape:document-rotation="0" />
  <path
     d="m 13.66412,8.9631803 h 4.076774 a 0.25920483,0.25920483 0 0 1 0.199068,0.425096 L 15.901576,11.83517 a 0.25920483,0.25920483 0 0 1 -0.398138,0 L 13.465051,9.3882763 A 0.25920483,0.25920483 0 0 1 13.66412,8.9631803 Z M 2.2591076,11.036819 H 6.3358811 A 0.25920483,0.25920483 0 0 0 6.5349504,10.611723 L 4.4965637,8.1648295 a 0.25920483,0.25920483 0 0 0 -0.3981387,0 L 2.0600383,10.611723 a 0.25920483,0.25920483 0 0 0 0.1990693,0.425096 z"
     id="path2"
     style="fill:#ffffff;fill-opacity:1;stroke-width:1.03682" />
  <path
     fill-rule="evenodd"
     d="m 10.000001,4.8159031 c -1.609144,0 -3.0482492,0.7330312 -3.9990124,1.8849375 A 0.51840965,0.51840965 0 1 1 5.2016008,6.0414236 6.2229895,6.2229895 0 0 1 16.13486,8.9631803 H 15.080415 A 5.1861701,5.1861701 0 0 0 10.000001,4.8159031 Z M 4.919586,11.036819 a 5.1861701,5.1861701 0 0 0 9.079426,2.26234 0.51840965,0.51840965 0 1 1 0.799388,0.659417 6.2229895,6.2229895 0 0 1 -10.9332594,-2.921757 z"
     id="path4"
     style="fill:#ffffff;fill-opacity:1;stroke-width:1.03682" />
</svg>
