<?xml version="1.0" encoding="UTF-8" standalone="no"?>
<svg
   xmlns:dc="http://purl.org/dc/elements/1.1/"
   xmlns:cc="http://creativecommons.org/ns#"
   xmlns:rdf="http://www.w3.org/1999/02/22-rdf-syntax-ns#"
   xmlns:svg="http://www.w3.org/2000/svg"
   xmlns="http://www.w3.org/2000/svg"
   xmlns:sodipodi="http://sodipodi.sourceforge.net/DTD/sodipodi-0.dtd"
   xmlns:inkscape="http://www.inkscape.org/namespaces/inkscape"
   width="30"
   height="30"
   fill="currentColor"
   class="bi bi-arrow-repeat"
   viewBox="0 0 30 30"
   version="1.1"
   id="svg6"
   sodipodi:docname="arrow-repeat-white-16px-in-30px.svg"
   inkscape:version="1.0.2 (e86c870879, 2021-01-15, custom)">
  <metadata
     id="metadata12">
    <rdf:RDF>
      <cc:Work
         rdf:about="">
        <dc:format>image/svg+xml</dc:format>
        <dc:type
           rdf:resource="http://purl.org/dc/dcmitype/StillImage" />
        <dc:title></dc:title>
      </cc:Work>
    </rdf:RDF>
  </metadata>
  <defs
     id="defs10" />
  <sodipodi:namedview
     pagecolor="#ffffff"
     bordercolor="#666666"
     borderopacity="1"
     objecttolerance="10"
     gridtolerance="10"
     guidetolerance="10"
     inkscape:pageopacity="0"
     inkscape:pageshadow="2"
     inkscape:window-width="1920"
     inkscape:window-height="1001"
     id="namedview8"
     showgrid="false"
     inkscape:zoom="25.9375"
     inkscape:cx="12.32387"
     inkscape:cy="14.623891"
     inkscape:window-x="-9"
     inkscape:window-y="41"
     inkscape:window-maximized="1"
     inkscape:current-layer="svg6"
     inkscape:document-rotation="0" />
  <path
     d="m 18.66412,13.96318 h 4.076774 a 0.25920483,0.25920483 0 0 1 0.199068,0.425096 l -2.038386,2.446894 a 0.25920483,0.25920483 0 0 1 -0.398138,0 L 18.465051,14.388276 A 0.25920483,0.25920483 0 0 1 18.66412,13.96318 Z M 7.2591075,16.036819 H 11.335881 A 0.25920483,0.25920483 0 0 0 11.53495,15.611723 L 9.4965636,13.16483 a 0.25920483,0.25920483 0 0 0 -0.3981387,0 l -2.0383867,2.446893 a 0.25920483,0.25920483 0 0 0 0.1990693,0.425096 z"
     id="path2"
     style="fill:#ffffff;fill-opacity:1;stroke-width:1.03682" />
  <path
     fill-rule="evenodd"
     d="m 15.000001,9.8159031 c -1.609144,0 -3.048249,0.7330309 -3.999013,1.8849379 A 0.51840964,0.51840964 0 1 1 10.201601,11.041424 6.2229895,6.2229895 0 0 1 21.13486,13.96318 H 20.080415 A 5.18617,5.18617 0 0 0 15.000001,9.8159031 Z M 9.9195859,16.036819 a 5.18617,5.18617 0 0 0 9.0794261,2.26234 0.51840964,0.51840964 0 1 1 0.799388,0.659417 6.2229895,6.2229895 0 0 1 -10.9332595,-2.921757 z"
     id="path4"
     style="fill:#ffffff;fill-opacity:1;stroke-width:1.03682" />
</svg>
