<?xml version="1.0" encoding="UTF-8" standalone="no"?>
<svg
   xmlns:dc="http://purl.org/dc/elements/1.1/"
   xmlns:cc="http://creativecommons.org/ns#"
   xmlns:rdf="http://www.w3.org/1999/02/22-rdf-syntax-ns#"
   xmlns:svg="http://www.w3.org/2000/svg"
   xmlns="http://www.w3.org/2000/svg"
   xmlns:sodipodi="http://sodipodi.sourceforge.net/DTD/sodipodi-0.dtd"
   xmlns:inkscape="http://www.inkscape.org/namespaces/inkscape"
   width="16"
   height="16"
   fill="currentColor"
   class="bi bi-arrow-repeat"
   viewBox="0 0 16 16"
   version="1.1"
   id="svg6"
   sodipodi:docname="arrow-repeat-orange-12px-in-16px.svg"
   inkscape:version="1.0.2 (e86c870879, 2021-01-15, custom)">
  <metadata
     id="metadata12">
    <rdf:RDF>
      <cc:Work
         rdf:about="">
        <dc:format>image/svg+xml</dc:format>
        <dc:type
           rdf:resource="http://purl.org/dc/dcmitype/StillImage" />
        <dc:title></dc:title>
      </cc:Work>
    </rdf:RDF>
  </metadata>
  <defs
     id="defs10" />
  <sodipodi:namedview
     pagecolor="#ffffff"
     bordercolor="#666666"
     borderopacity="1"
     objecttolerance="10"
     gridtolerance="10"
     guidetolerance="10"
     inkscape:pageopacity="0"
     inkscape:pageshadow="2"
     inkscape:window-width="1920"
     inkscape:window-height="1001"
     id="namedview8"
     showgrid="false"
     inkscape:zoom="12.96875"
     inkscape:cx="1.0468977"
     inkscape:cy="-0.17911536"
     inkscape:window-x="-9"
     inkscape:window-y="41"
     inkscape:window-maximized="1"
     inkscape:current-layer="svg6"
     inkscape:document-rotation="0" />
  <path
     d="m 10.748089,7.2223858 h 3.057581 a 0.1944036,0.1944036 0 0 1 0.149302,0.3188214 L 12.426181,9.376378 a 0.1944036,0.1944036 0 0 1 -0.298604,0 L 10.598788,7.5412072 a 0.1944036,0.1944036 0 0 1 0.149301,-0.3188214 z m -8.5537585,1.555229 h 3.05758 a 0.1944036,0.1944036 0 0 0 0.1493019,-0.318822 l -1.52879,-1.835171 a 0.1944036,0.1944036 0 0 0 -0.298604,0 l -1.5287898,1.835171 a 0.1944036,0.1944036 0 0 0 0.1493019,0.318822 z"
     id="path2"
     style="fill:#ff5757;fill-opacity:1;stroke-width:0.777615" />
  <path
     fill-rule="evenodd"
     d="m 8.0000006,4.1119276 c -1.206859,0 -2.2861872,0.5497735 -2.9992596,1.4137032 A 0.38880721,0.38880721 0 1 1 4.4012002,5.0310679 4.6672418,4.6672418 0 0 1 12.601144,7.2223858 H 11.810311 A 3.8896273,3.8896273 0 0 0 8.0000006,4.1119276 Z M 4.1896891,8.7776148 a 3.8896273,3.8896273 0 0 0 6.8095689,1.6967532 0.38880721,0.38880721 0 1 1 0.599541,0.494564 4.6672418,4.6672418 0 0 1 -8.1999438,-2.1913172 z"
     id="path4"
     style="fill:#ff5757;fill-opacity:1;stroke-width:0.777615" />
</svg>
