<?xml version="1.0" encoding="UTF-8" standalone="no"?>
<svg
   xmlns:dc="http://purl.org/dc/elements/1.1/"
   xmlns:cc="http://creativecommons.org/ns#"
   xmlns:rdf="http://www.w3.org/1999/02/22-rdf-syntax-ns#"
   xmlns:svg="http://www.w3.org/2000/svg"
   xmlns="http://www.w3.org/2000/svg"
   xmlns:sodipodi="http://sodipodi.sourceforge.net/DTD/sodipodi-0.dtd"
   xmlns:inkscape="http://www.inkscape.org/namespaces/inkscape"
   width="30"
   height="30"
   fill="currentColor"
   class="bi bi-arrow-repeat"
   viewBox="0 0 30 30"
   version="1.1"
   id="svg6"
   sodipodi:docname="arrow-repeat-white-20px-in-30px.svg"
   inkscape:version="1.0.2 (e86c870879, 2021-01-15, custom)">
  <metadata
     id="metadata12">
    <rdf:RDF>
      <cc:Work
         rdf:about="">
        <dc:format>image/svg+xml</dc:format>
        <dc:type
           rdf:resource="http://purl.org/dc/dcmitype/StillImage" />
        <dc:title></dc:title>
      </cc:Work>
    </rdf:RDF>
  </metadata>
  <defs
     id="defs10" />
  <sodipodi:namedview
     pagecolor="#ffffff"
     bordercolor="#666666"
     borderopacity="1"
     objecttolerance="10"
     gridtolerance="10"
     guidetolerance="10"
     inkscape:pageopacity="0"
     inkscape:pageshadow="2"
     inkscape:window-width="1920"
     inkscape:window-height="1001"
     id="namedview8"
     showgrid="false"
     inkscape:zoom="25.9375"
     inkscape:cx="12.32387"
     inkscape:cy="14.623891"
     inkscape:window-x="-9"
     inkscape:window-y="41"
     inkscape:window-maximized="1"
     inkscape:current-layer="svg6"
     inkscape:document-rotation="0" />
  <path
     d="m 19.580149,13.703975 h 5.095968 a 0.32400602,0.32400602 0 0 1 0.248835,0.53137 l -2.547983,3.058617 a 0.32400602,0.32400602 0 0 1 -0.497672,0 l -2.547984,-3.058617 a 0.32400602,0.32400602 0 0 1 0.248836,-0.53137 z M 5.3238845,16.296024 h 5.0959665 a 0.32400602,0.32400602 0 0 0 0.248836,-0.53137 L 8.1207041,12.706038 a 0.32400602,0.32400602 0 0 0 -0.4976729,0 l -2.5479833,3.058616 a 0.32400602,0.32400602 0 0 0 0.2488366,0.53137 z"
     id="path2"
     style="fill:#ffffff;fill-opacity:1;stroke-width:1.29603" />
  <path
     fill-rule="evenodd"
     d="m 15.000001,8.5198789 c -2.01143,0 -3.810311,0.916289 -4.998766,2.3561721 A 0.64801202,0.64801202 0 1 1 9.0020011,10.05178 7.7787366,7.7787366 0 0 1 22.668574,13.703975 H 21.350518 A 6.4827122,6.4827122 0 0 0 15.000001,8.5198789 Z M 8.6494821,16.296024 A 6.4827122,6.4827122 0 0 0 19.998764,19.123949 0.64801202,0.64801202 0 1 1 20.997999,19.94822 7.7787366,7.7787366 0 0 1 7.3314257,16.296024 Z"
     id="path4"
     style="fill:#ffffff;fill-opacity:1;stroke-width:1.29603" />
</svg>
