<?xml version="1.0" encoding="UTF-8" standalone="no"?>
<svg
   xmlns:dc="http://purl.org/dc/elements/1.1/"
   xmlns:cc="http://creativecommons.org/ns#"
   xmlns:rdf="http://www.w3.org/1999/02/22-rdf-syntax-ns#"
   xmlns:svg="http://www.w3.org/2000/svg"
   xmlns="http://www.w3.org/2000/svg"
   xmlns:sodipodi="http://sodipodi.sourceforge.net/DTD/sodipodi-0.dtd"
   xmlns:inkscape="http://www.inkscape.org/namespaces/inkscape"
   width="25"
   height="25"
   fill="currentColor"
   class="bi bi-box-arrow-left"
   viewBox="0 0 25 25"
   version="1.1"
   id="svg6"
   sodipodi:docname="box-arrow-left-25px.svg"
   inkscape:version="1.0.2 (e86c870879, 2021-01-15, custom)">
  <metadata
     id="metadata12">
    <rdf:RDF>
      <cc:Work
         rdf:about="">
        <dc:format>image/svg+xml</dc:format>
        <dc:type
           rdf:resource="http://purl.org/dc/dcmitype/StillImage" />
        <dc:title></dc:title>
      </cc:Work>
    </rdf:RDF>
  </metadata>
  <defs
     id="defs10" />
  <sodipodi:namedview
     pagecolor="#ffffff"
     bordercolor="#666666"
     borderopacity="1"
     objecttolerance="10"
     gridtolerance="10"
     guidetolerance="10"
     inkscape:pageopacity="0"
     inkscape:pageshadow="2"
     inkscape:window-width="1920"
     inkscape:window-height="1001"
     id="namedview8"
     showgrid="false"
     inkscape:zoom="51.875"
     inkscape:cx="8"
     inkscape:cy="5.686747"
     inkscape:window-x="-9"
     inkscape:window-y="41"
     inkscape:window-maximized="1"
     inkscape:current-layer="svg6" />
  <path
     fill-rule="evenodd"
     d="m 9.3758728,19.530857 a 0.78120636,0.78120636 0 0 0 0.7812062,0.781206 h 12.499302 a 0.78120636,0.78120636 0 0 0 0.781206,-0.781206 V 5.4691426 A 0.78120636,0.78120636 0 0 0 22.656381,4.6879362 H 10.157079 A 0.78120636,0.78120636 0 0 0 9.3758728,5.4691426 V 8.593968 a 0.78120636,0.78120636 0 0 1 -1.5624127,0 V 5.4691426 A 2.3436191,2.3436191 0 0 1 10.157079,3.1255235 H 22.656381 A 2.3436191,2.3436191 0 0 1 25,5.4691426 V 19.530857 a 2.3436191,2.3436191 0 0 1 -2.343619,2.343619 H 10.157079 A 2.3436191,2.3436191 0 0 1 7.8134601,19.530857 v -3.124826 a 0.78120636,0.78120636 0 0 1 1.5624127,0 z"
     id="path2"
     style="stroke-width:1.56241" />
  <path
     fill-rule="evenodd"
     d="m 0.22950877,13.053093 a 0.78120636,0.78120636 0 0 1 0,-1.106187 L 4.9167469,7.2596676 A 0.78219318,0.78219318 0 1 1 6.0229351,8.3658558 L 2.668435,11.718794 H 16.40673 a 0.7812065,0.7812065 0 0 1 0,1.562413 H 2.668435 l 3.3545001,3.352936 a 0.78219346,0.78219346 0 0 1 -1.1061882,1.106189 z"
     id="path4"
     style="stroke-width:1.56241" />
</svg>
