<?xml version="1.0" encoding="UTF-8" standalone="no"?>
<svg
   xmlns:dc="http://purl.org/dc/elements/1.1/"
   xmlns:cc="http://creativecommons.org/ns#"
   xmlns:rdf="http://www.w3.org/1999/02/22-rdf-syntax-ns#"
   xmlns:svg="http://www.w3.org/2000/svg"
   xmlns="http://www.w3.org/2000/svg"
   xmlns:sodipodi="http://sodipodi.sourceforge.net/DTD/sodipodi-0.dtd"
   xmlns:inkscape="http://www.inkscape.org/namespaces/inkscape"
   width="25"
   height="25"
   fill="currentColor"
   class="bi bi-chevron-double-left"
   viewBox="0 0 25 25"
   version="1.1"
   id="svg6"
   sodipodi:docname="chevron-double-right-white-colored 25X25.svg"
   inkscape:version="1.0.2 (e86c870879, 2021-01-15, custom)">
  <metadata
     id="metadata12">
    <rdf:RDF>
      <cc:Work
         rdf:about="">
        <dc:format>image/svg+xml</dc:format>
        <dc:type
           rdf:resource="http://purl.org/dc/dcmitype/StillImage" />
        <dc:title></dc:title>
      </cc:Work>
    </rdf:RDF>
  </metadata>
  <defs
     id="defs10" />
  <sodipodi:namedview
     pagecolor="#ffde59"
     bordercolor="#666666"
     borderopacity="1"
     objecttolerance="10"
     gridtolerance="10"
     guidetolerance="10"
     inkscape:pageopacity="0"
     inkscape:pageshadow="2"
     inkscape:window-width="1920"
     inkscape:window-height="1001"
     id="namedview8"
     showgrid="false"
     inkscape:zoom="12.96875"
     inkscape:cx="28.096536"
     inkscape:cy="21.390358"
     inkscape:window-x="-9"
     inkscape:window-y="41"
     inkscape:window-maximized="1"
     inkscape:current-layer="svg6" />
  <g
     id="g839"
     transform="matrix(-1.8178864,0,0,1.8178864,25.225205,-2.0428529)"
     style="fill:#ffffff;fill-opacity:1">
    <path
       fill-rule="evenodd"
       d="m 8.354,1.646 a 0.5,0.5 0 0 1 0,0.708 L 2.707,8 8.354,13.646 a 0.5006316,0.5006316 0 0 1 -0.708,0.708 l -6,-6 a 0.5,0.5 0 0 1 0,-0.708 l 6,-6 a 0.5,0.5 0 0 1 0.708,0 z"
       id="path2"
       style="fill:#ffffff;fill-opacity:1" />
    <path
       fill-rule="evenodd"
       d="m 12.354,1.646 a 0.5,0.5 0 0 1 0,0.708 L 6.707,8 l 5.647,5.646 a 0.5006316,0.5006316 0 0 1 -0.708,0.708 l -6,-6 a 0.5,0.5 0 0 1 0,-0.708 l 6,-6 a 0.5,0.5 0 0 1 0.708,0 z"
       id="path4"
       style="fill:#ffffff;fill-opacity:1" />
  </g>
</svg>
