<?xml version="1.0" encoding="UTF-8" standalone="no"?>
<svg
   xmlns:dc="http://purl.org/dc/elements/1.1/"
   xmlns:cc="http://creativecommons.org/ns#"
   xmlns:rdf="http://www.w3.org/1999/02/22-rdf-syntax-ns#"
   xmlns:svg="http://www.w3.org/2000/svg"
   xmlns="http://www.w3.org/2000/svg"
   xmlns:sodipodi="http://sodipodi.sourceforge.net/DTD/sodipodi-0.dtd"
   xmlns:inkscape="http://www.inkscape.org/namespaces/inkscape"
   width="25"
   height="25"
   fill="currentColor"
   class="bi bi-grid-1x2"
   viewBox="0 0 25 25"
   version="1.1"
   id="svg4"
   sodipodi:docname="details-orange-25px.svg"
   inkscape:version="1.0.2 (e86c870879, 2021-01-15, custom)">
  <metadata
     id="metadata10">
    <rdf:RDF>
      <cc:Work
         rdf:about="">
        <dc:format>image/svg+xml</dc:format>
        <dc:type
           rdf:resource="http://purl.org/dc/dcmitype/StillImage" />
        <dc:title></dc:title>
      </cc:Work>
    </rdf:RDF>
  </metadata>
  <defs
     id="defs8" />
  <sodipodi:namedview
     pagecolor="#ffffff"
     bordercolor="#666666"
     borderopacity="1"
     objecttolerance="10"
     gridtolerance="10"
     guidetolerance="10"
     inkscape:pageopacity="0"
     inkscape:pageshadow="2"
     inkscape:window-width="1920"
     inkscape:window-height="1001"
     id="namedview6"
     showgrid="false"
     inkscape:zoom="9.170291"
     inkscape:cx="-2.9416588"
     inkscape:cy="30.384228"
     inkscape:window-x="-9"
     inkscape:window-y="41"
     inkscape:window-maximized="1"
     inkscape:current-layer="svg4"
     inkscape:document-rotation="0" />
  <path
     d="M 9.375,1.5625 H 1.5625 v 21.875 H 9.375 Z m 14.0625,0 H 15.625 V 9.375 h 7.8125 z m 0,14.0625 v 7.8125 H 15.625 V 15.625 Z M 0,1.5625 A 1.5625,1.5625 0 0 1 1.5625,0 H 9.375 a 1.5625,1.5625 0 0 1 1.5625,1.5625 v 21.875 A 1.5625,1.5625 0 0 1 9.375,25 H 1.5625 A 1.5625,1.5625 0 0 1 0,23.4375 Z m 14.0625,0 A 1.5625,1.5625 0 0 1 15.625,0 h 7.8125 A 1.5625,1.5625 0 0 1 25,1.5625 V 9.375 a 1.5625,1.5625 0 0 1 -1.5625,1.5625 H 15.625 A 1.5625,1.5625 0 0 1 14.0625,9.375 Z m 1.5625,12.5 a 1.5625,1.5625 0 0 0 -1.5625,1.5625 v 7.8125 A 1.5625,1.5625 0 0 0 15.625,25 h 7.8125 A 1.5625,1.5625 0 0 0 25,23.4375 V 15.625 a 1.5625,1.5625 0 0 0 -1.5625,-1.5625 z"
     id="path2"
     style="fill:#ff5757;fill-opacity:1;stroke-width:1.5625" />
</svg>
