<?xml version="1.0" encoding="UTF-8" standalone="no"?>
<svg
   xmlns:dc="http://purl.org/dc/elements/1.1/"
   xmlns:cc="http://creativecommons.org/ns#"
   xmlns:rdf="http://www.w3.org/1999/02/22-rdf-syntax-ns#"
   xmlns:svg="http://www.w3.org/2000/svg"
   xmlns="http://www.w3.org/2000/svg"
   xmlns:sodipodi="http://sodipodi.sourceforge.net/DTD/sodipodi-0.dtd"
   xmlns:inkscape="http://www.inkscape.org/namespaces/inkscape"
   width="30"
   height="30"
   fill="currentColor"
   class="bi bi-grid-1x2"
   viewBox="0 0 30 30"
   version="1.1"
   id="svg4"
   sodipodi:docname="details-orange-30px.svg"
   inkscape:version="1.0.2 (e86c870879, 2021-01-15, custom)">
  <metadata
     id="metadata10">
    <rdf:RDF>
      <cc:Work
         rdf:about="">
        <dc:format>image/svg+xml</dc:format>
        <dc:type
           rdf:resource="http://purl.org/dc/dcmitype/StillImage" />
        <dc:title></dc:title>
      </cc:Work>
    </rdf:RDF>
  </metadata>
  <defs
     id="defs8" />
  <sodipodi:namedview
     pagecolor="#ffffff"
     bordercolor="#666666"
     borderopacity="1"
     objecttolerance="10"
     gridtolerance="10"
     guidetolerance="10"
     inkscape:pageopacity="0"
     inkscape:pageshadow="2"
     inkscape:window-width="1920"
     inkscape:window-height="1001"
     id="namedview6"
     showgrid="false"
     inkscape:zoom="9.170291"
     inkscape:cx="-2.9416588"
     inkscape:cy="30.384228"
     inkscape:window-x="-9"
     inkscape:window-y="41"
     inkscape:window-maximized="1"
     inkscape:current-layer="svg4"
     inkscape:document-rotation="0" />
  <path
     d="M 11.25,1.875 H 1.875 v 26.25 h 9.375 z m 16.875,0 H 18.75 v 9.375 h 9.375 z m 0,16.875 v 9.375 H 18.75 V 18.75 Z M 0,1.875 A 1.875,1.875 0 0 1 1.875,0 h 9.375 a 1.875,1.875 0 0 1 1.875,1.875 v 26.25 A 1.875,1.875 0 0 1 11.25,30 H 1.875 A 1.875,1.875 0 0 1 0,28.125 Z m 16.875,0 A 1.875,1.875 0 0 1 18.75,0 h 9.375 A 1.875,1.875 0 0 1 30,1.875 v 9.375 a 1.875,1.875 0 0 1 -1.875,1.875 H 18.75 A 1.875,1.875 0 0 1 16.875,11.25 Z m 1.875,15 a 1.875,1.875 0 0 0 -1.875,1.875 v 9.375 A 1.875,1.875 0 0 0 18.75,30 h 9.375 A 1.875,1.875 0 0 0 30,28.125 V 18.75 a 1.875,1.875 0 0 0 -1.875,-1.875 z"
     id="path2"
     style="fill:#ff5757;fill-opacity:1;stroke-width:1.875" />
</svg>
