<?xml version="1.0" encoding="UTF-8" standalone="no"?>
<svg
   xmlns:dc="http://purl.org/dc/elements/1.1/"
   xmlns:cc="http://creativecommons.org/ns#"
   xmlns:rdf="http://www.w3.org/1999/02/22-rdf-syntax-ns#"
   xmlns:svg="http://www.w3.org/2000/svg"
   xmlns="http://www.w3.org/2000/svg"
   xmlns:sodipodi="http://sodipodi.sourceforge.net/DTD/sodipodi-0.dtd"
   xmlns:inkscape="http://www.inkscape.org/namespaces/inkscape"
   width="20"
   height="20"
   fill="currentColor"
   class="bi bi-eye-slash-fill"
   viewBox="0 0 20 20"
   version="1.1"
   id="svg6"
   sodipodi:docname="eye-slash-fill-yellow-20px.svg"
   inkscape:version="1.0.2 (e86c870879, 2021-01-15, custom)">
  <metadata
     id="metadata12">
    <rdf:RDF>
      <cc:Work
         rdf:about="">
        <dc:format>image/svg+xml</dc:format>
        <dc:type
           rdf:resource="http://purl.org/dc/dcmitype/StillImage" />
        <dc:title></dc:title>
      </cc:Work>
    </rdf:RDF>
  </metadata>
  <defs
     id="defs10" />
  <sodipodi:namedview
     pagecolor="#ffffff"
     bordercolor="#666666"
     borderopacity="1"
     objecttolerance="10"
     gridtolerance="10"
     guidetolerance="10"
     inkscape:pageopacity="0"
     inkscape:pageshadow="2"
     inkscape:window-width="1920"
     inkscape:window-height="1001"
     id="namedview8"
     showgrid="false"
     inkscape:zoom="25.9375"
     inkscape:cx="5.6449896"
     inkscape:cy="10.094143"
     inkscape:window-x="-9"
     inkscape:window-y="41"
     inkscape:window-maximized="1"
     inkscape:current-layer="svg6" />
  <path
     d="M 13.4875,16.14 11.47,14.12125 A 4.375,4.375 0 0 1 5.8775,8.52875 l -2.575,-2.575 C 1.1725,7.8475 0,10 0,10 c 0,0 3.75,6.875 10,6.875 A 8.78375,8.78375 0 0 0 13.4875,16.14 Z M 6.5125,3.86 A 8.785,8.785 0 0 1 10,3.125 c 6.25,0 10,6.875 10,6.875 0,0 -1.17375,2.15125 -3.30125,4.0475 L 14.12125,11.47 A 4.375,4.375 0 0 0 8.52875,5.8775 Z"
     id="path2"
     style="stroke-width:1.25;fill:#ffde59;fill-opacity:1" />
  <path
     d="m 6.90625,9.5575 a 3.125,3.125 0 0 0 3.53625,3.53625 L 6.905,9.5575 Z m 6.1875,0.885 L 9.5575,6.905 a 3.125,3.125 0 0 1 3.53625,3.53625 z m 3.96375,7.5 -15,-15 0.885,-0.885 15,15 -0.885,0.88375 z"
     id="path4"
     style="stroke-width:1.25;fill:#ffde59;fill-opacity:1" />
</svg>
