<?xml version="1.0" encoding="UTF-8" standalone="no"?>
<svg
   xmlns:dc="http://purl.org/dc/elements/1.1/"
   xmlns:cc="http://creativecommons.org/ns#"
   xmlns:rdf="http://www.w3.org/1999/02/22-rdf-syntax-ns#"
   xmlns:svg="http://www.w3.org/2000/svg"
   xmlns="http://www.w3.org/2000/svg"
   xmlns:sodipodi="http://sodipodi.sourceforge.net/DTD/sodipodi-0.dtd"
   xmlns:inkscape="http://www.inkscape.org/namespaces/inkscape"
   width="20"
   height="20"
   fill="currentColor"
   class="bi bi-eye-fill"
   viewBox="0 0 20 20"
   version="1.1"
   id="svg6"
   sodipodi:docname="eye-fill-20px-blue.svg"
   inkscape:version="1.0.2 (e86c870879, 2021-01-15, custom)">
  <metadata
     id="metadata12">
    <rdf:RDF>
      <cc:Work
         rdf:about="">
        <dc:format>image/svg+xml</dc:format>
        <dc:type
           rdf:resource="http://purl.org/dc/dcmitype/StillImage" />
        <dc:title></dc:title>
      </cc:Work>
    </rdf:RDF>
  </metadata>
  <defs
     id="defs10" />
  <sodipodi:namedview
     pagecolor="#ffffff"
     bordercolor="#666666"
     borderopacity="1"
     objecttolerance="10"
     gridtolerance="10"
     guidetolerance="10"
     inkscape:pageopacity="0"
     inkscape:pageshadow="2"
     inkscape:window-width="1920"
     inkscape:window-height="1001"
     id="namedview8"
     showgrid="false"
     inkscape:zoom="18.340582"
     inkscape:cx="-4.2529825"
     inkscape:cy="5.1703957"
     inkscape:window-x="-9"
     inkscape:window-y="41"
     inkscape:window-maximized="1"
     inkscape:current-layer="svg6"
     inkscape:document-rotation="0" />
  <path
     d="m 13.125,10 a 3.125,3.125 0 1 1 -6.25,0 3.125,3.125 0 0 1 6.25,0 z"
     id="path2"
     style="stroke-width:1.25;fill:#5271ff;fill-opacity:1" />
  <path
     d="M 0,10 C 0,10 3.75,3.125 10,3.125 16.25,3.125 20,10 20,10 20,10 16.25,16.875 10,16.875 3.75,16.875 0,10 0,10 Z m 10,4.375 a 4.375,4.375 0 1 0 0,-8.75 4.375,4.375 0 0 0 0,8.75 z"
     id="path4"
     style="stroke-width:1.25;fill:#5271ff;fill-opacity:1" />
</svg>
