<?xml version="1.0" encoding="UTF-8" standalone="no"?>
<svg
   xmlns:dc="http://purl.org/dc/elements/1.1/"
   xmlns:cc="http://creativecommons.org/ns#"
   xmlns:rdf="http://www.w3.org/1999/02/22-rdf-syntax-ns#"
   xmlns:svg="http://www.w3.org/2000/svg"
   xmlns="http://www.w3.org/2000/svg"
   xmlns:sodipodi="http://sodipodi.sourceforge.net/DTD/sodipodi-0.dtd"
   xmlns:inkscape="http://www.inkscape.org/namespaces/inkscape"
   width="35"
   height="35"
   fill="currentColor"
   class="bi bi-file-person"
   viewBox="0 0 35 35"
   version="1.1"
   id="svg6"
   sodipodi:docname="file-person-white-35px.svg"
   inkscape:version="1.0.2 (e86c870879, 2021-01-15, custom)">
  <metadata
     id="metadata12">
    <rdf:RDF>
      <cc:Work
         rdf:about="">
        <dc:format>image/svg+xml</dc:format>
        <dc:type
           rdf:resource="http://purl.org/dc/dcmitype/StillImage" />
        <dc:title></dc:title>
      </cc:Work>
    </rdf:RDF>
  </metadata>
  <defs
     id="defs10" />
  <sodipodi:namedview
     pagecolor="#39424e"
     bordercolor="#666666"
     borderopacity="1"
     objecttolerance="10"
     gridtolerance="10"
     guidetolerance="10"
     inkscape:pageopacity="0"
     inkscape:pageshadow="2"
     inkscape:window-width="1920"
     inkscape:window-height="1001"
     id="namedview8"
     showgrid="false"
     inkscape:zoom="18.340582"
     inkscape:cx="15.394631"
     inkscape:cy="15.130747"
     inkscape:window-x="-9"
     inkscape:window-y="41"
     inkscape:window-maximized="1"
     inkscape:current-layer="svg6" />
  <path
     d="m 26.25,2.1875 a 2.1875,2.1875 0 0 1 2.1875,2.1875 v 23.526562 c 0,0 -2.1875,-3.839062 -10.9375,-3.839062 -8.75,0 -10.9375,3.839062 -10.9375,3.839062 V 4.375 A 2.1875,2.1875 0 0 1 8.75,2.1875 Z M 8.75,0 A 4.375,4.375 0 0 0 4.375,4.375 v 26.25 A 4.375,4.375 0 0 0 8.75,35 h 17.5 a 4.375,4.375 0 0 0 4.375,-4.375 V 4.375 A 4.375,4.375 0 0 0 26.25,0 Z"
     id="path2"
     style="fill:#ffffff;fill-opacity:1;stroke-width:2.1875" />
  <path
     d="m 17.5,21.875 a 6.5625,6.5625 0 1 0 0,-13.125 6.5625,6.5625 0 0 0 0,13.125 z"
     id="path4"
     style="fill:#ffffff;fill-opacity:1;stroke-width:2.1875" />
</svg>
