<?xml version="1.0" encoding="UTF-8" standalone="no"?>
<svg
   xmlns:dc="http://purl.org/dc/elements/1.1/"
   xmlns:cc="http://creativecommons.org/ns#"
   xmlns:rdf="http://www.w3.org/1999/02/22-rdf-syntax-ns#"
   xmlns:svg="http://www.w3.org/2000/svg"
   xmlns="http://www.w3.org/2000/svg"
   xmlns:sodipodi="http://sodipodi.sourceforge.net/DTD/sodipodi-0.dtd"
   xmlns:inkscape="http://www.inkscape.org/namespaces/inkscape"
   width="20"
   height="20"
   fill="currentColor"
   class="bi bi-file-post"
   viewBox="0 0 20 20"
   version="1.1"
   id="svg6"
   sodipodi:docname="file-post-grey-20px.svg"
   inkscape:version="1.0.2 (e86c870879, 2021-01-15, custom)">
  <metadata
     id="metadata12">
    <rdf:RDF>
      <cc:Work
         rdf:about="">
        <dc:format>image/svg+xml</dc:format>
        <dc:type
           rdf:resource="http://purl.org/dc/dcmitype/StillImage" />
        <dc:title></dc:title>
      </cc:Work>
    </rdf:RDF>
  </metadata>
  <defs
     id="defs10" />
  <sodipodi:namedview
     pagecolor="#ffffff"
     bordercolor="#666666"
     borderopacity="1"
     objecttolerance="10"
     gridtolerance="10"
     guidetolerance="10"
     inkscape:pageopacity="0"
     inkscape:pageshadow="2"
     inkscape:window-width="1920"
     inkscape:window-height="1001"
     id="namedview8"
     showgrid="false"
     inkscape:zoom="25.9375"
     inkscape:cx="5.5885283"
     inkscape:cy="10.37645"
     inkscape:window-x="-9"
     inkscape:window-y="41"
     inkscape:window-maximized="1"
     inkscape:current-layer="svg6" />
  <path
     d="M 5,4.375 A 0.625,0.625 0 0 1 5.625,3.75 h 6.25 a 0.625,0.625 0 0 1 0,1.25 H 5.625 A 0.625,0.625 0 0 1 5,4.375 Z m 0,2.5 A 0.625,0.625 0 0 1 5.625,6.25 h 8.75 A 0.625,0.625 0 0 1 15,6.875 v 10 A 0.625,0.625 0 0 1 14.375,17.5 H 5.625 A 0.625,0.625 0 0 1 5,16.875 Z"
     id="path2"
     style="stroke-width:1.25;fill:#39424e;fill-opacity:1" />
  <path
     d="M 2.5,2.5 A 2.5,2.5 0 0 1 5,0 h 10 a 2.5,2.5 0 0 1 2.5,2.5 v 15 A 2.5,2.5 0 0 1 15,20 H 5 A 2.5,2.5 0 0 1 2.5,17.5 Z M 15,1.25 H 5 A 1.25,1.25 0 0 0 3.75,2.5 v 15 A 1.25,1.25 0 0 0 5,18.75 H 15 A 1.25,1.25 0 0 0 16.25,17.5 V 2.5 A 1.25,1.25 0 0 0 15,1.25 Z"
     id="path4"
     style="stroke-width:1.25;fill:#39424e;fill-opacity:1" />
</svg>
