<?xml version="1.0" encoding="UTF-8" standalone="no"?>
<svg
   xmlns:dc="http://purl.org/dc/elements/1.1/"
   xmlns:cc="http://creativecommons.org/ns#"
   xmlns:rdf="http://www.w3.org/1999/02/22-rdf-syntax-ns#"
   xmlns:svg="http://www.w3.org/2000/svg"
   xmlns="http://www.w3.org/2000/svg"
   xmlns:sodipodi="http://sodipodi.sourceforge.net/DTD/sodipodi-0.dtd"
   xmlns:inkscape="http://www.inkscape.org/namespaces/inkscape"
   width="20"
   height="20"
   fill="currentColor"
   class="bi bi-file-person"
   viewBox="0 0 20 20"
   version="1.1"
   id="svg6"
   sodipodi:docname="file-person-grey-20px.svg"
   inkscape:version="1.0.2 (e86c870879, 2021-01-15, custom)">
  <metadata
     id="metadata12">
    <rdf:RDF>
      <cc:Work
         rdf:about="">
        <dc:format>image/svg+xml</dc:format>
        <dc:type
           rdf:resource="http://purl.org/dc/dcmitype/StillImage" />
        <dc:title></dc:title>
      </cc:Work>
    </rdf:RDF>
  </metadata>
  <defs
     id="defs10" />
  <sodipodi:namedview
     pagecolor="#ffffff"
     bordercolor="#666666"
     borderopacity="1"
     objecttolerance="10"
     gridtolerance="10"
     guidetolerance="10"
     inkscape:pageopacity="0"
     inkscape:pageshadow="2"
     inkscape:window-width="1920"
     inkscape:window-height="1001"
     id="namedview8"
     showgrid="false"
     inkscape:zoom="18.340582"
     inkscape:cx="-2.4290101"
     inkscape:cy="-6.6788115"
     inkscape:window-x="-9"
     inkscape:window-y="41"
     inkscape:window-maximized="1"
     inkscape:current-layer="svg6" />
  <path
     d="m 15,1.25 a 1.25,1.25 0 0 1 1.25,1.25 v 13.44375 c 0,0 -1.25,-2.19375 -6.25,-2.19375 -5,0 -6.25,2.19375 -6.25,2.19375 V 2.5 A 1.25,1.25 0 0 1 5,1.25 Z M 5,0 A 2.5,2.5 0 0 0 2.5,2.5 v 15 A 2.5,2.5 0 0 0 5,20 h 10 a 2.5,2.5 0 0 0 2.5,-2.5 V 2.5 A 2.5,2.5 0 0 0 15,0 Z"
     id="path2"
     style="stroke-width:1.25;fill:#39424e;fill-opacity:1" />
  <path
     d="M 10,12.5 A 3.75,3.75 0 1 0 10,5 3.75,3.75 0 0 0 10,12.5 Z"
     id="path4"
     style="stroke-width:1.25;fill:#39424e;fill-opacity:1" />
</svg>
