<?xml version="1.0" encoding="UTF-8" standalone="no"?>
<svg
   xmlns:dc="http://purl.org/dc/elements/1.1/"
   xmlns:cc="http://creativecommons.org/ns#"
   xmlns:rdf="http://www.w3.org/1999/02/22-rdf-syntax-ns#"
   xmlns:svg="http://www.w3.org/2000/svg"
   xmlns="http://www.w3.org/2000/svg"
   xmlns:sodipodi="http://sodipodi.sourceforge.net/DTD/sodipodi-0.dtd"
   xmlns:inkscape="http://www.inkscape.org/namespaces/inkscape"
   width="35"
   height="35"
   fill="currentColor"
   class="bi bi-file-post"
   viewBox="0 0 35 35"
   version="1.1"
   id="svg6"
   sodipodi:docname="file-post-white-35px.svg"
   inkscape:version="1.0.2 (e86c870879, 2021-01-15, custom)">
  <metadata
     id="metadata12">
    <rdf:RDF>
      <cc:Work
         rdf:about="">
        <dc:format>image/svg+xml</dc:format>
        <dc:type
           rdf:resource="http://purl.org/dc/dcmitype/StillImage" />
        <dc:title></dc:title>
      </cc:Work>
    </rdf:RDF>
  </metadata>
  <defs
     id="defs10" />
  <sodipodi:namedview
     pagecolor="#39424e"
     bordercolor="#666666"
     borderopacity="1"
     objecttolerance="10"
     gridtolerance="10"
     guidetolerance="10"
     inkscape:pageopacity="0"
     inkscape:pageshadow="2"
     inkscape:window-width="1920"
     inkscape:window-height="1001"
     id="namedview8"
     showgrid="false"
     inkscape:zoom="12.96875"
     inkscape:cx="14.42923"
     inkscape:cy="9.8414729"
     inkscape:window-x="-9"
     inkscape:window-y="41"
     inkscape:window-maximized="1"
     inkscape:current-layer="svg6" />
  <path
     d="M 8.75,7.65625 A 1.09375,1.09375 0 0 1 9.84375,6.5625 h 10.9375 a 1.09375,1.09375 0 0 1 0,2.1875 H 9.84375 A 1.09375,1.09375 0 0 1 8.75,7.65625 Z m 0,4.375 A 1.09375,1.09375 0 0 1 9.84375,10.9375 h 15.3125 A 1.09375,1.09375 0 0 1 26.25,12.03125 v 17.5 A 1.09375,1.09375 0 0 1 25.15625,30.625 H 9.84375 A 1.09375,1.09375 0 0 1 8.75,29.53125 Z"
     id="path2"
     style="fill:#ffffff;fill-opacity:1;stroke-width:2.1875" />
  <path
     d="M 4.375,4.375 A 4.375,4.375 0 0 1 8.75,0 h 17.5 a 4.375,4.375 0 0 1 4.375,4.375 v 26.25 A 4.375,4.375 0 0 1 26.25,35 H 8.75 A 4.375,4.375 0 0 1 4.375,30.625 Z M 26.25,2.1875 H 8.75 A 2.1875,2.1875 0 0 0 6.5625,4.375 v 26.25 A 2.1875,2.1875 0 0 0 8.75,32.8125 h 17.5 A 2.1875,2.1875 0 0 0 28.4375,30.625 V 4.375 A 2.1875,2.1875 0 0 0 26.25,2.1875 Z"
     id="path4"
     style="fill:#ffffff;fill-opacity:1;stroke-width:2.1875" />
</svg>
