<?xml version="1.0" encoding="UTF-8" standalone="no"?>
<svg
   xmlns:dc="http://purl.org/dc/elements/1.1/"
   xmlns:cc="http://creativecommons.org/ns#"
   xmlns:rdf="http://www.w3.org/1999/02/22-rdf-syntax-ns#"
   xmlns:svg="http://www.w3.org/2000/svg"
   xmlns="http://www.w3.org/2000/svg"
   xmlns:sodipodi="http://sodipodi.sourceforge.net/DTD/sodipodi-0.dtd"
   xmlns:inkscape="http://www.inkscape.org/namespaces/inkscape"
   width="30"
   height="30"
   fill="currentColor"
   class="bi bi-file-person"
   viewBox="0 0 30 30"
   version="1.1"
   id="svg6"
   sodipodi:docname="file-person-grey-30px.svg"
   inkscape:version="1.0.2 (e86c870879, 2021-01-15, custom)">
  <metadata
     id="metadata12">
    <rdf:RDF>
      <cc:Work
         rdf:about="">
        <dc:format>image/svg+xml</dc:format>
        <dc:type
           rdf:resource="http://purl.org/dc/dcmitype/StillImage" />
        <dc:title></dc:title>
      </cc:Work>
    </rdf:RDF>
  </metadata>
  <defs
     id="defs10" />
  <sodipodi:namedview
     pagecolor="#ffffff"
     bordercolor="#666666"
     borderopacity="1"
     objecttolerance="10"
     gridtolerance="10"
     guidetolerance="10"
     inkscape:pageopacity="0"
     inkscape:pageshadow="2"
     inkscape:window-width="1920"
     inkscape:window-height="1001"
     id="namedview8"
     showgrid="false"
     inkscape:zoom="18.340582"
     inkscape:cx="-2.4290101"
     inkscape:cy="6.4069236"
     inkscape:window-x="-9"
     inkscape:window-y="41"
     inkscape:window-maximized="1"
     inkscape:current-layer="svg6" />
  <path
     d="m 22.5,1.875 a 1.875,1.875 0 0 1 1.875,1.875 v 20.165625 c 0,0 -1.875,-3.290625 -9.375,-3.290625 -7.5,0 -9.375,3.290625 -9.375,3.290625 V 3.75 A 1.875,1.875 0 0 1 7.5,1.875 Z M 7.5,0 A 3.75,3.75 0 0 0 3.75,3.75 v 22.5 A 3.75,3.75 0 0 0 7.5,30 h 15 a 3.75,3.75 0 0 0 3.75,-3.75 V 3.75 A 3.75,3.75 0 0 0 22.5,0 Z"
     id="path2"
     style="fill:#39424e;fill-opacity:1;stroke-width:1.875" />
  <path
     d="M 15,18.75 A 5.625,5.625 0 1 0 15,7.5 5.625,5.625 0 0 0 15,18.75 Z"
     id="path4"
     style="fill:#39424e;fill-opacity:1;stroke-width:1.875" />
</svg>
