<?xml version="1.0" encoding="UTF-8" standalone="no"?>
<svg
   xmlns:dc="http://purl.org/dc/elements/1.1/"
   xmlns:cc="http://creativecommons.org/ns#"
   xmlns:rdf="http://www.w3.org/1999/02/22-rdf-syntax-ns#"
   xmlns:svg="http://www.w3.org/2000/svg"
   xmlns="http://www.w3.org/2000/svg"
   xmlns:sodipodi="http://sodipodi.sourceforge.net/DTD/sodipodi-0.dtd"
   xmlns:inkscape="http://www.inkscape.org/namespaces/inkscape"
   width="25"
   height="25"
   fill="currentColor"
   class="bi bi-gear"
   viewBox="0 0 25 25"
   version="1.1"
   id="svg6"
   sodipodi:docname="gear-blue-25px.svg"
   inkscape:version="1.0.2 (e86c870879, 2021-01-15, custom)">
  <metadata
     id="metadata12">
    <rdf:RDF>
      <cc:Work
         rdf:about="">
        <dc:format>image/svg+xml</dc:format>
        <dc:type
           rdf:resource="http://purl.org/dc/dcmitype/StillImage" />
        <dc:title></dc:title>
      </cc:Work>
    </rdf:RDF>
  </metadata>
  <defs
     id="defs10" />
  <sodipodi:namedview
     pagecolor="#ffffff"
     bordercolor="#666666"
     borderopacity="1"
     objecttolerance="10"
     gridtolerance="10"
     guidetolerance="10"
     inkscape:pageopacity="0"
     inkscape:pageshadow="2"
     inkscape:window-width="1920"
     inkscape:window-height="1001"
     id="namedview8"
     showgrid="false"
     inkscape:zoom="25.9375"
     inkscape:cx="4.0866566"
     inkscape:cy="7.929352"
     inkscape:window-x="-9"
     inkscape:window-y="41"
     inkscape:window-maximized="1"
     inkscape:current-layer="svg6" />
  <path
     d="m 12.5,7.4278077 a 5.0721925,5.0721925 0 1 0 0,10.1443853 5.0721925,5.0721925 0 0 0 0,-10.1443853 z M 8.9904053,12.5 a 3.5095944,3.5095944 0 1 1 7.0191887,0 3.5095944,3.5095944 0 0 1 -7.0191887,0 z"
     id="path2"
     style="fill:#5271ff;fill-opacity:1;stroke-width:1.5626" />
  <path
     d="m 15.306425,2.0977871 c -0.823489,-2.79704981 -4.789361,-2.79704981 -5.6128507,0 L 9.5466901,2.5962557 a 1.3641478,1.3641478 0 0 1 -1.96106,0.8125507 L 7.1293516,3.1587908 C 4.5666913,1.7649537 1.7649537,4.5682539 3.1603534,7.1293516 l 0.248453,0.4562785 a 1.3641478,1.3641478 0 0 1 -0.8125507,1.96106 L 2.0977871,9.6935743 c -2.79704981,0.8234897 -2.79704981,4.7893617 0,5.6128507 l 0.4984686,0.146885 a 1.3641478,1.3641478 0 0 1 0.8125507,1.96106 l -0.2500156,0.456279 c -1.3938371,2.56266 1.4079005,5.36596 3.9705608,3.968997 l 0.4562785,-0.248452 a 1.3641478,1.3641478 0 0 1 1.96106,0.81255 l 0.1468842,0.498469 c 0.8234897,2.79705 4.7893617,2.79705 5.6128507,0 l 0.146885,-0.498469 a 1.3641478,1.3641478 0 0 1 1.96106,-0.81255 l 0.456279,0.250015 c 2.56266,1.3954 5.36596,-1.409463 3.968997,-3.97056 L 21.591194,17.41437 a 1.3641478,1.3641478 0 0 1 0.81255,-1.96106 l 0.498469,-0.146885 c 2.79705,-0.823489 2.79705,-4.789361 0,-5.6128507 L 22.403744,9.5466901 a 1.3641478,1.3641478 0 0 1 -0.81255,-1.96106 l 0.250015,-0.4562785 c 1.3954,-2.5626603 -1.409463,-5.3643979 -3.97056,-3.9689982 L 17.41437,3.4088064 A 1.3641478,1.3641478 0 0 1 15.45331,2.5962557 Z m -4.114319,0.4422151 c 0.384399,-1.3047691 2.231389,-1.3047691 2.615788,0 l 0.146885,0.4984686 a 2.9267454,2.9267454 0 0 0 4.208075,1.7422964 L 18.61757,4.5307516 c 1.193825,-0.648478 2.500156,0.6562911 1.850115,1.8516782 l -0.248452,0.4562785 a 2.9267454,2.9267454 0 0 0 1.743858,4.2065137 l 0.496907,0.146884 c 1.304768,0.384399 1.304768,2.231389 0,2.615788 l -0.498469,0.146885 a 2.9267454,2.9267454 0 0 0 -1.742296,4.208075 l 0.250015,0.454716 c 0.648478,1.193825 -0.65629,2.500156 -1.851678,1.850115 l -0.454716,-0.248452 a 2.9267454,2.9267454 0 0 0 -4.208075,1.743858 l -0.146885,0.496907 c -0.384399,1.304768 -2.231389,1.304768 -2.615788,0 L 11.045222,21.961529 A 2.9267454,2.9267454 0 0 0 6.8387083,20.219233 L 6.3824298,20.469248 C 5.1886052,21.117726 3.8822736,19.812958 4.5323142,18.61757 l 0.248453,-0.454716 A 2.9267454,2.9267454 0 0 0 3.0384708,13.953216 L 2.5400022,13.806331 c -1.3047691,-0.384398 -1.3047691,-2.231389 0,-2.615788 L 3.0384708,11.043659 A 2.9267454,2.9267454 0 0 0 4.7807672,6.8387083 L 4.5307516,6.3824298 C 3.8822736,5.1886052 5.1870427,3.8822736 6.3824298,4.5323142 l 0.4562785,0.248453 A 2.9267454,2.9267454 0 0 0 11.045222,3.0384708 Z"
     id="path4"
     style="fill:#5271ff;fill-opacity:1;stroke-width:1.5626" />
</svg>
