<?xml version="1.0" encoding="UTF-8" standalone="no"?>
<svg
   xmlns:dc="http://purl.org/dc/elements/1.1/"
   xmlns:cc="http://creativecommons.org/ns#"
   xmlns:rdf="http://www.w3.org/1999/02/22-rdf-syntax-ns#"
   xmlns:svg="http://www.w3.org/2000/svg"
   xmlns="http://www.w3.org/2000/svg"
   xmlns:sodipodi="http://sodipodi.sourceforge.net/DTD/sodipodi-0.dtd"
   xmlns:inkscape="http://www.inkscape.org/namespaces/inkscape"
   width="30"
   height="30"
   fill="currentColor"
   class="bi bi-gear"
   viewBox="0 0 30 30"
   version="1.1"
   id="svg6"
   sodipodi:docname="gear-blue-30px.svg"
   inkscape:version="1.0.2 (e86c870879, 2021-01-15, custom)">
  <metadata
     id="metadata12">
    <rdf:RDF>
      <cc:Work
         rdf:about="">
        <dc:format>image/svg+xml</dc:format>
        <dc:type
           rdf:resource="http://purl.org/dc/dcmitype/StillImage" />
        <dc:title></dc:title>
      </cc:Work>
    </rdf:RDF>
  </metadata>
  <defs
     id="defs10" />
  <sodipodi:namedview
     pagecolor="#ffffff"
     bordercolor="#666666"
     borderopacity="1"
     objecttolerance="10"
     gridtolerance="10"
     guidetolerance="10"
     inkscape:pageopacity="0"
     inkscape:pageshadow="2"
     inkscape:window-width="1920"
     inkscape:window-height="1001"
     id="namedview8"
     showgrid="false"
     inkscape:zoom="25.9375"
     inkscape:cx="4.0866566"
     inkscape:cy="7.929352"
     inkscape:window-x="-9"
     inkscape:window-y="41"
     inkscape:window-maximized="1"
     inkscape:current-layer="svg6" />
  <path
     d="M 15,8.913369 A 6.0866311,6.0866311 0 1 0 15,21.086631 6.0866311,6.0866311 0 0 0 15,8.913369 Z M 10.788486,15 a 4.2115132,4.2115132 0 1 1 8.423026,0 4.2115132,4.2115132 0 0 1 -8.423026,0 z"
     id="path2"
     style="fill:#5271ff;fill-opacity:1;stroke-width:1.87512" />
  <path
     d="m 18.367708,2.5173446 c -0.988185,-3.35645965 -5.747232,-3.35645965 -6.735419,0 L 11.456028,3.1155069 A 1.6369773,1.6369773 0 0 1 9.1027559,4.0905677 L 8.5552217,3.790549 C 5.4800294,2.1179445 2.1179445,5.4819047 3.7924241,8.5552217 L 4.0905677,9.1027559 A 1.6369773,1.6369773 0 0 1 3.1155069,11.456028 l -0.5981623,0.176261 c -3.35645965,0.988187 -3.35645965,5.747234 0,6.735419 l 0.5981623,0.176262 a 1.6369773,1.6369773 0 0 1 0.9750608,2.353273 L 3.790549,21.444778 c -1.6726045,3.075192 1.6894804,6.439152 4.7646727,4.762795 l 0.5475342,-0.298141 a 1.6369773,1.6369773 0 0 1 2.3532721,0.97506 l 0.176261,0.598163 c 0.988187,3.35646 5.747234,3.35646 6.735419,0 l 0.176262,-0.598163 a 1.6369773,1.6369773 0 0 1 2.353273,-0.97506 l 0.547535,0.300018 c 3.075192,1.67448 6.439152,-1.691355 4.762795,-4.764672 l -0.298141,-0.547535 a 1.6369773,1.6369773 0 0 1 0.97506,-2.353273 l 0.598163,-0.176262 c 3.35646,-0.988185 3.35646,-5.747232 0,-6.735419 L 26.884492,11.456028 A 1.6369773,1.6369773 0 0 1 25.909432,9.1027559 L 26.20945,8.5552217 C 27.88393,5.4800294 24.518095,2.1179445 21.444778,3.7924241 L 20.897243,4.0905677 A 1.6369773,1.6369773 0 0 1 18.54397,3.1155069 Z m -4.937181,0.5306581 c 0.461279,-1.5657229 2.677667,-1.5657229 3.138945,0 l 0.176262,0.5981623 a 3.5120944,3.5120944 0 0 0 5.04969,2.0907555 l 0.545659,-0.3000186 c 1.43259,-0.7781737 3.000186,0.7875493 2.220138,2.2220138 l -0.298142,0.5475342 a 3.5120944,3.5120944 0 0 0 2.092628,5.0478161 l 0.59629,0.176261 c 1.56572,0.461279 1.56572,2.677667 0,3.138945 l -0.598163,0.176262 a 3.5120944,3.5120944 0 0 0 -2.090755,5.04969 l 0.300018,0.545659 c 0.778172,1.43259 -0.787548,3.000186 -2.222014,2.220138 l -0.545659,-0.298142 a 3.5120944,3.5120944 0 0 0 -5.04969,2.092628 l -0.176262,0.59629 c -0.461278,1.56572 -2.677666,1.56572 -3.138945,0 L 13.254266,26.353834 A 3.5120944,3.5120944 0 0 0 8.2064499,24.263079 L 7.6589157,24.563097 C 6.2263262,25.341269 4.6587282,23.775549 5.4387769,22.341083 L 5.7369205,21.795424 A 3.5120944,3.5120944 0 0 0 3.646165,16.743859 L 3.0480027,16.567597 c -1.5657229,-0.461278 -1.5657229,-2.677667 0,-3.138946 L 3.646165,13.25239 A 3.5120944,3.5120944 0 0 0 5.7369205,8.2064499 L 5.4369019,7.6589157 C 4.6587282,6.2263262 6.2244512,4.6587282 7.6589157,5.4387769 L 8.2064499,5.7369205 A 3.5120944,3.5120944 0 0 0 13.254266,3.646165 Z"
     id="path4"
     style="fill:#5271ff;fill-opacity:1;stroke-width:1.87512" />
</svg>
