<?xml version="1.0" encoding="UTF-8" standalone="no"?>
<svg
   xmlns:dc="http://purl.org/dc/elements/1.1/"
   xmlns:cc="http://creativecommons.org/ns#"
   xmlns:rdf="http://www.w3.org/1999/02/22-rdf-syntax-ns#"
   xmlns:svg="http://www.w3.org/2000/svg"
   xmlns="http://www.w3.org/2000/svg"
   xmlns:sodipodi="http://sodipodi.sourceforge.net/DTD/sodipodi-0.dtd"
   xmlns:inkscape="http://www.inkscape.org/namespaces/inkscape"
   width="20"
   height="20"
   fill="currentColor"
   class="bi bi-gear-fill"
   viewBox="0 0 20 20"
   version="1.1"
   id="svg4"
   sodipodi:docname="gear-fill-blue-20px.svg"
   inkscape:version="1.0.2 (e86c870879, 2021-01-15, custom)">
  <metadata
     id="metadata10">
    <rdf:RDF>
      <cc:Work
         rdf:about="">
        <dc:format>image/svg+xml</dc:format>
        <dc:type
           rdf:resource="http://purl.org/dc/dcmitype/StillImage" />
        <dc:title></dc:title>
      </cc:Work>
    </rdf:RDF>
  </metadata>
  <defs
     id="defs8" />
  <sodipodi:namedview
     pagecolor="#ffffff"
     bordercolor="#666666"
     borderopacity="1"
     objecttolerance="10"
     gridtolerance="10"
     guidetolerance="10"
     inkscape:pageopacity="0"
     inkscape:pageshadow="2"
     inkscape:window-width="1920"
     inkscape:window-height="1001"
     id="namedview6"
     showgrid="false"
     inkscape:zoom="25.9375"
     inkscape:cx="4.7641927"
     inkscape:cy="10.381322"
     inkscape:window-x="-9"
     inkscape:window-y="41"
     inkscape:window-maximized="1"
     inkscape:current-layer="svg4" />
  <path
     d="m 11.75625,1.3125 c -0.51625,-1.75 -2.99625,-1.75 -3.5125,0 l -0.125,0.425 A 1.83,1.83 0 0 1 5.4875,2.8275 L 5.1,2.615 C 3.49625,1.7425 1.7425,3.49625 2.61625,5.09875 L 2.8275,5.4875 c 0.5575,1.025 0.02875,2.30125 -1.09,2.63125 l -0.425,0.125 c -1.75,0.51625 -1.75,2.99625 0,3.5125 l 0.425,0.125 a 1.83,1.83 0 0 1 1.09,2.63125 L 2.615,14.9 c -0.8725,1.60375 0.88125,3.3575 2.48375,2.48375 L 5.4875,17.1725 a 1.83,1.83 0 0 1 2.63125,1.09 l 0.125,0.425 c 0.51625,1.75 2.99625,1.75 3.5125,0 l 0.125,-0.425 a 1.83,1.83 0 0 1 2.63125,-1.09 L 14.9,17.385 c 1.60375,0.8725 3.3575,-0.88125 2.48375,-2.48375 L 17.1725,14.5125 a 1.83,1.83 0 0 1 1.09,-2.63125 l 0.425,-0.125 c 1.75,-0.51625 1.75,-2.99625 0,-3.5125 l -0.425,-0.125 A 1.83,1.83 0 0 1 17.1725,5.4875 L 17.385,5.1 C 18.2575,3.49625 16.50375,1.7425 14.90125,2.61625 L 14.5125,2.8275 a 1.83,1.83 0 0 1 -2.63125,-1.09 z M 10,13.6625 a 3.6625,3.6625 0 1 1 0,-7.325 3.66125,3.66125 0 0 1 0,7.3225 z"
     id="path2"
     style="stroke-width:1.25;fill:#5271ff;fill-opacity:1" />
</svg>
