<?xml version="1.0" encoding="UTF-8" standalone="no"?>
<svg
   xmlns:dc="http://purl.org/dc/elements/1.1/"
   xmlns:cc="http://creativecommons.org/ns#"
   xmlns:rdf="http://www.w3.org/1999/02/22-rdf-syntax-ns#"
   xmlns:svg="http://www.w3.org/2000/svg"
   xmlns="http://www.w3.org/2000/svg"
   xmlns:sodipodi="http://sodipodi.sourceforge.net/DTD/sodipodi-0.dtd"
   xmlns:inkscape="http://www.inkscape.org/namespaces/inkscape"
   width="25"
   height="25"
   fill="currentColor"
   class="bi bi-gear-fill"
   viewBox="0 0 25 25"
   version="1.1"
   id="svg4"
   sodipodi:docname="gear-fill-blue-25px.svg"
   inkscape:version="1.0.2 (e86c870879, 2021-01-15, custom)">
  <metadata
     id="metadata10">
    <rdf:RDF>
      <cc:Work
         rdf:about="">
        <dc:format>image/svg+xml</dc:format>
        <dc:type
           rdf:resource="http://purl.org/dc/dcmitype/StillImage" />
        <dc:title></dc:title>
      </cc:Work>
    </rdf:RDF>
  </metadata>
  <defs
     id="defs8" />
  <sodipodi:namedview
     pagecolor="#ffffff"
     bordercolor="#666666"
     borderopacity="1"
     objecttolerance="10"
     gridtolerance="10"
     guidetolerance="10"
     inkscape:pageopacity="0"
     inkscape:pageshadow="2"
     inkscape:window-width="1920"
     inkscape:window-height="1001"
     id="namedview6"
     showgrid="false"
     inkscape:zoom="25.9375"
     inkscape:cx="4.7641927"
     inkscape:cy="10.381322"
     inkscape:window-x="-9"
     inkscape:window-y="41"
     inkscape:window-maximized="1"
     inkscape:current-layer="svg4" />
  <path
     d="m 14.695313,1.640625 c -0.645313,-2.1875 -3.745313,-2.1875 -4.390626,0 l -0.15625,0.53125 a 2.2875,2.2875 0 0 1 -3.289062,1.3625 L 6.375,3.26875 C 4.3703125,2.178125 2.178125,4.3703125 3.2703125,6.3734375 L 3.534375,6.859375 c 0.696875,1.28125 0.035938,2.8765625 -1.3625,3.289063 l -0.53125,0.15625 c -2.1875,0.645312 -2.1875,3.745312 0,4.390625 l 0.53125,0.15625 a 2.2875,2.2875 0 0 1 1.3625,3.289062 L 3.26875,18.625 c -1.090625,2.004687 1.1015625,4.196875 3.1046875,3.104687 L 6.859375,21.465625 a 2.2875,2.2875 0 0 1 3.289063,1.3625 l 0.15625,0.53125 c 0.645312,2.1875 3.745312,2.1875 4.390625,0 l 0.15625,-0.53125 a 2.2875,2.2875 0 0 1 3.289062,-1.3625 L 18.625,21.73125 c 2.004687,1.090625 4.196875,-1.101563 3.104687,-3.104687 l -0.264062,-0.485938 a 2.2875,2.2875 0 0 1 1.3625,-3.289062 l 0.53125,-0.15625 c 2.1875,-0.645313 2.1875,-3.745313 0,-4.390626 l -0.53125,-0.15625 a 2.2875,2.2875 0 0 1 -1.3625,-3.289062 L 21.73125,6.375 C 22.821875,4.3703125 20.629687,2.178125 18.626562,3.2703125 L 18.140625,3.534375 a 2.2875,2.2875 0 0 1 -3.289062,-1.3625 z M 12.5,17.078125 a 4.578125,4.578125 0 1 1 0,-9.15625 4.5765625,4.5765625 0 0 1 0,9.153125 z"
     id="path2"
     style="fill:#5271ff;fill-opacity:1;stroke-width:1.5625" />
</svg>
