<?xml version="1.0" encoding="UTF-8" standalone="no"?>
<svg
   xmlns:dc="http://purl.org/dc/elements/1.1/"
   xmlns:cc="http://creativecommons.org/ns#"
   xmlns:rdf="http://www.w3.org/1999/02/22-rdf-syntax-ns#"
   xmlns:svg="http://www.w3.org/2000/svg"
   xmlns="http://www.w3.org/2000/svg"
   xmlns:sodipodi="http://sodipodi.sourceforge.net/DTD/sodipodi-0.dtd"
   xmlns:inkscape="http://www.inkscape.org/namespaces/inkscape"
   width="20"
   height="20"
   fill="currentColor"
   class="bi bi-gear"
   viewBox="0 0 20 20"
   version="1.1"
   id="svg6"
   sodipodi:docname="gear-blue-20px.svg"
   inkscape:version="1.0.2 (e86c870879, 2021-01-15, custom)">
  <metadata
     id="metadata12">
    <rdf:RDF>
      <cc:Work
         rdf:about="">
        <dc:format>image/svg+xml</dc:format>
        <dc:type
           rdf:resource="http://purl.org/dc/dcmitype/StillImage" />
        <dc:title></dc:title>
      </cc:Work>
    </rdf:RDF>
  </metadata>
  <defs
     id="defs10" />
  <sodipodi:namedview
     pagecolor="#ffffff"
     bordercolor="#666666"
     borderopacity="1"
     objecttolerance="10"
     gridtolerance="10"
     guidetolerance="10"
     inkscape:pageopacity="0"
     inkscape:pageshadow="2"
     inkscape:window-width="1920"
     inkscape:window-height="1001"
     id="namedview8"
     showgrid="false"
     inkscape:zoom="25.9375"
     inkscape:cx="4.0866566"
     inkscape:cy="7.929352"
     inkscape:window-x="-9"
     inkscape:window-y="41"
     inkscape:window-maximized="1"
     inkscape:current-layer="svg6" />
  <path
     d="m 10,5.9422464 a 4.0577538,4.0577538 0 1 0 0,8.1155076 4.0577538,4.0577538 0 0 0 0,-8.1155076 z M 7.1923245,10 a 2.8076755,2.8076755 0 1 1 5.6153505,0 2.8076755,2.8076755 0 0 1 -5.6153505,0 z"
     id="path2"
     style="fill:#5271ff;fill-opacity:1;stroke-width:1.25008" />
  <path
     d="m 12.24514,1.6782299 c -0.658791,-2.23763986 -3.8314891,-2.23763986 -4.4902803,0 L 7.6373523,2.0770048 A 1.0913182,1.0913182 0 0 1 6.0685043,2.7270454 L 5.7034815,2.5270329 C 3.6533533,1.4119632 1.4119632,3.6546034 2.528283,5.7034815 L 2.7270454,6.0685043 A 1.0913182,1.0913182 0 0 1 2.0770048,7.6373523 L 1.6782299,7.7548597 c -2.23763986,0.6587912 -2.23763986,3.8314893 0,4.4902803 l 0.3987749,0.117508 a 1.0913182,1.0913182 0 0 1 0.6500406,1.568848 l -0.2000125,0.365023 c -1.1150697,2.050128 1.1263204,4.292768 3.1764486,3.175198 l 0.3650228,-0.198762 a 1.0913182,1.0913182 0 0 1 1.568848,0.65004 l 0.1175074,0.398775 c 0.6587912,2.23764 3.8314893,2.23764 4.4902803,0 l 0.117508,-0.398775 a 1.0913182,1.0913182 0 0 1 1.568848,-0.65004 l 0.365023,0.200012 c 2.050128,1.11632 4.292768,-1.12757 3.175198,-3.176448 l -0.198762,-0.365023 a 1.0913182,1.0913182 0 0 1 0.65004,-1.568848 L 18.32177,12.24514 c 2.23764,-0.658791 2.23764,-3.8314891 0,-4.4902803 L 17.922995,7.6373523 a 1.0913182,1.0913182 0 0 1 -0.65004,-1.568848 L 17.472967,5.7034815 C 18.589287,3.6533533 16.345397,1.4119632 14.296519,2.528283 L 13.931496,2.7270454 A 1.0913182,1.0913182 0 0 1 12.362648,2.0770048 Z M 8.9536846,2.032002 c 0.3075192,-1.04381524 1.7851114,-1.04381524 2.0926304,0 l 0.117508,0.3987749 a 2.3413963,2.3413963 0 0 0 3.36646,1.3938371 l 0.363773,-0.2000125 c 0.95506,-0.5187824 2.000125,0.5250329 1.480092,1.4813426 l -0.198762,0.3650228 a 2.3413963,2.3413963 0 0 0 1.395087,3.3652104 l 0.397525,0.1175073 c 1.043815,0.3075192 1.043815,1.7851114 0,2.0926304 l -0.398775,0.117508 a 2.3413963,2.3413963 0 0 0 -1.393837,3.36646 l 0.200012,0.363773 c 0.518783,0.95506 -0.525032,2.000125 -1.481342,1.480092 l -0.363773,-0.198762 a 2.3413963,2.3413963 0 0 0 -3.36646,1.395087 l -0.117508,0.397525 c -0.307519,1.043815 -1.7851112,1.043815 -2.0926304,0 L 8.8361773,17.569223 A 2.3413963,2.3413963 0 0 0 5.4709669,16.175386 L 5.1059441,16.375398 C 4.1508844,16.894181 3.1058191,15.850366 3.6258516,14.894056 L 3.824614,14.530283 A 2.3413963,2.3413963 0 0 0 2.4307769,11.162573 L 2.032002,11.045065 c -1.04381524,-0.307519 -1.04381524,-1.7851113 0,-2.0926305 L 2.4307769,8.8349272 A 2.3413963,2.3413963 0 0 0 3.824614,5.4709669 L 3.6246015,5.1059441 C 3.1058191,4.1508844 4.1496344,3.1058191 5.1059441,3.6258516 L 5.4709669,3.824614 A 2.3413963,2.3413963 0 0 0 8.8361773,2.4307769 Z"
     id="path4"
     style="fill:#5271ff;fill-opacity:1;stroke-width:1.25008" />
</svg>
