<?xml version="1.0" encoding="UTF-8" standalone="no"?>
<svg
   xmlns:dc="http://purl.org/dc/elements/1.1/"
   xmlns:cc="http://creativecommons.org/ns#"
   xmlns:rdf="http://www.w3.org/1999/02/22-rdf-syntax-ns#"
   xmlns:svg="http://www.w3.org/2000/svg"
   xmlns="http://www.w3.org/2000/svg"
   xmlns:sodipodi="http://sodipodi.sourceforge.net/DTD/sodipodi-0.dtd"
   xmlns:inkscape="http://www.inkscape.org/namespaces/inkscape"
   width="30"
   height="30"
   fill="currentColor"
   class="bi bi-heart"
   viewBox="0 0 30 30"
   version="1.1"
   id="svg4"
   sodipodi:docname="heart-FFDE59 Yellow stroked 25px.svg"
   inkscape:version="1.0.2 (e86c870879, 2021-01-15, custom)">
  <metadata
     id="metadata10">
    <rdf:RDF>
      <cc:Work
         rdf:about="">
        <dc:format>image/svg+xml</dc:format>
        <dc:type
           rdf:resource="http://purl.org/dc/dcmitype/StillImage" />
        <dc:title></dc:title>
      </cc:Work>
    </rdf:RDF>
  </metadata>
  <defs
     id="defs8" />
  <sodipodi:namedview
     pagecolor="#ffffff"
     bordercolor="#666666"
     borderopacity="1"
     objecttolerance="10"
     gridtolerance="10"
     guidetolerance="10"
     inkscape:pageopacity="0"
     inkscape:pageshadow="2"
     inkscape:window-width="1920"
     inkscape:window-height="1001"
     id="namedview6"
     showgrid="false"
     inkscape:zoom="14.929804"
     inkscape:cx="23.208615"
     inkscape:cy="17.855518"
     inkscape:window-x="-9"
     inkscape:window-y="41"
     inkscape:window-maximized="1"
     inkscape:current-layer="svg4" />
  <g
     id="path2"
     style="opacity:1;stroke:none;stroke-opacity:1;fill:#ffde59;fill-opacity:1">
    <path
       style="color:#000000;font-style:normal;font-variant:normal;font-weight:normal;font-stretch:normal;font-size:medium;line-height:normal;font-family:sans-serif;font-variant-ligatures:normal;font-variant-position:normal;font-variant-caps:normal;font-variant-numeric:normal;font-variant-alternates:normal;font-variant-east-asian:normal;font-feature-settings:normal;font-variation-settings:normal;text-indent:0;text-align:start;text-decoration:none;text-decoration-line:none;text-decoration-style:solid;text-decoration-color:#000000;letter-spacing:normal;word-spacing:normal;text-transform:none;writing-mode:lr-tb;direction:ltr;text-orientation:mixed;dominant-baseline:auto;baseline-shift:baseline;text-anchor:start;white-space:normal;shape-padding:0;shape-margin:0;inline-size:0;clip-rule:nonzero;display:inline;overflow:visible;visibility:visible;isolation:auto;mix-blend-mode:normal;color-interpolation:sRGB;color-interpolation-filters:linearRGB;solid-color:#000000;solid-opacity:1;vector-effect:none;fill:#ffde59;fill-opacity:1;fill-rule:nonzero;stroke:none;stroke-width:2.09358;stroke-linecap:butt;stroke-linejoin:miter;stroke-miterlimit:4;stroke-dasharray:none;stroke-dashoffset:0;stroke-opacity:1;color-rendering:auto;image-rendering:auto;shape-rendering:auto;text-rendering:auto;enable-background:accumulate;stop-color:#000000;stop-opacity:1"
       d="M 14.958817,7.5584519 13.841895,6.4103751 C 11.220167,3.7154321 6.4128874,4.645421 4.6775311,8.0335719 3.8628172,9.6271711 3.6790003,11.927998 5.166671,14.864395 c 1.4331489,2.827354 4.4147216,6.213947 9.792146,9.902748 5.377423,-3.688801 8.357439,-7.075394 9.792145,-9.902748 1.487671,-2.937955 1.305412,-5.2372239 0.48914,-6.8308231 C 23.504746,4.645421 18.697466,3.7138743 16.075738,6.4088172 Z m 0,19.0858041 C -8.9264789,10.860925 7.6045819,-1.4579238 14.684649,5.0582302 c 0.09346,0.085677 0.185374,0.1744703 0.274168,0.2663788 0.08789,-0.091825 0.17935,-0.1801664 0.274167,-0.264821 7.078509,-6.5208273 23.611127,5.799579 -0.274167,21.584468 z"
       id="path837" />
    <path
       style="color:#000000;font-style:normal;font-variant:normal;font-weight:normal;font-stretch:normal;font-size:medium;line-height:normal;font-family:sans-serif;font-variant-ligatures:normal;font-variant-position:normal;font-variant-caps:normal;font-variant-numeric:normal;font-variant-alternates:normal;font-variant-east-asian:normal;font-feature-settings:normal;font-variation-settings:normal;text-indent:0;text-align:start;text-decoration:none;text-decoration-line:none;text-decoration-style:solid;text-decoration-color:#000000;letter-spacing:normal;word-spacing:normal;text-transform:none;writing-mode:lr-tb;direction:ltr;text-orientation:mixed;dominant-baseline:auto;baseline-shift:baseline;text-anchor:start;white-space:normal;shape-padding:0;shape-margin:0;inline-size:0;clip-rule:nonzero;display:inline;overflow:visible;visibility:visible;isolation:auto;mix-blend-mode:normal;color-interpolation:sRGB;color-interpolation-filters:linearRGB;solid-color:#000000;solid-opacity:1;vector-effect:none;fill:#ffde59;fill-opacity:1;fill-rule:nonzero;stroke:none;stroke-linecap:butt;stroke-linejoin:miter;stroke-miterlimit:4;stroke-dasharray:none;stroke-dashoffset:0;stroke-opacity:1;color-rendering:auto;image-rendering:auto;shape-rendering:auto;text-rendering:auto;enable-background:accumulate;stop-color:#000000;stop-opacity:1"
       d="M 21.742188 2.4277344 C 19.426703 1.9164593 16.941367 2.3923002 14.958984 3.9804688 C 10.852364 0.69183966 4.5219572 2.3313725 2.265625 7.0371094 C 1.0988605 9.4704774 1.0987668 12.681953 2.9140625 16.179688 C 4.7293582 19.677422 8.3109453 23.506597 14.380859 27.517578 L 14.958984 27.898438 L 15.535156 27.517578 C 21.605077 23.506197 25.186796 19.675766 27.001953 16.177734 C 28.817111 12.679703 28.817268 9.4685259 27.650391 7.0351562 C 26.483514 4.6017866 24.222388 2.9753798 21.742188 2.4277344 z M 9.0957031 5.984375 C 10.528163 5.7178764 12.045884 6.0655039 13.091797 7.140625 L 14.958984 9.0605469 L 15.708984 8.2871094 L 16.826172 7.1386719 C 18.917857 4.9885743 22.895326 5.7524202 24.308594 8.5117188 C 24.967433 9.7979643 25.189075 11.679784 23.816406 14.390625 L 23.818359 14.390625 C 22.55877 16.87288 19.76813 19.996301 14.958984 23.414062 C 10.149571 19.996201 7.3574815 16.872188 6.0996094 14.390625 C 4.7278108 11.682939 4.9520964 9.7984941 5.609375 8.5117188 L 5.609375 8.5097656 C 6.3161686 7.1309567 7.6637145 6.2507859 9.0957031 5.984375 z "
       id="path839" />
  </g>
</svg>
