<?xml version="1.0" encoding="UTF-8" standalone="no"?>
<svg
   xmlns:dc="http://purl.org/dc/elements/1.1/"
   xmlns:cc="http://creativecommons.org/ns#"
   xmlns:rdf="http://www.w3.org/1999/02/22-rdf-syntax-ns#"
   xmlns:svg="http://www.w3.org/2000/svg"
   xmlns="http://www.w3.org/2000/svg"
   xmlns:sodipodi="http://sodipodi.sourceforge.net/DTD/sodipodi-0.dtd"
   xmlns:inkscape="http://www.inkscape.org/namespaces/inkscape"
   width="30"
   height="30"
   fill="currentColor"
   class="bi bi-house-door"
   viewBox="0 0 30 30"
   version="1.1"
   id="svg4"
   sodipodi:docname="house-door-grey-30px.svg"
   inkscape:version="1.0.2 (e86c870879, 2021-01-15, custom)">
  <metadata
     id="metadata10">
    <rdf:RDF>
      <cc:Work
         rdf:about="">
        <dc:format>image/svg+xml</dc:format>
        <dc:type
           rdf:resource="http://purl.org/dc/dcmitype/StillImage" />
        <dc:title></dc:title>
      </cc:Work>
    </rdf:RDF>
  </metadata>
  <defs
     id="defs8" />
  <sodipodi:namedview
     pagecolor="#ffffff"
     bordercolor="#666666"
     borderopacity="1"
     objecttolerance="10"
     gridtolerance="10"
     guidetolerance="10"
     inkscape:pageopacity="0"
     inkscape:pageshadow="2"
     inkscape:window-width="1920"
     inkscape:window-height="1001"
     id="namedview6"
     showgrid="false"
     inkscape:zoom="18.340582"
     inkscape:cx="1.004471"
     inkscape:cy="10.410612"
     inkscape:window-x="-9"
     inkscape:window-y="41"
     inkscape:window-maximized="1"
     inkscape:current-layer="svg4" />
  <path
     d="m 15.758523,0.31475203 a 1.0713602,1.0713602 0 0 0 -1.517045,0 L 1.3851554,13.171074 A 1.0713602,1.0713602 0 0 0 1.0723181,13.929597 V 28.92864 A 1.0713602,1.0713602 0 0 0 2.1436784,30 H 11.78592 a 1.0713602,1.0713602 0 0 0 1.07136,-1.07136 v -8.570881 h 4.28544 V 28.92864 A 1.0713602,1.0713602 0 0 0 18.21408,30 h 9.642242 a 1.0713602,1.0713602 0 0 0 1.07136,-1.07136 V 13.929597 a 1.0713602,1.0713602 0 0 0 -0.312837,-0.758523 l -2.901243,-2.8991 V 3.2159954 a 1.0713602,1.0713602 0 0 0 -1.07136,-1.0713602 h -2.14272 a 1.0713602,1.0713602 0 0 0 -1.07136,1.0713602 V 5.9865329 Z M 3.2150385,27.85728 V 14.373141 L 15,2.5881783 26.784962,14.373141 V 27.85728 H 19.28544 v -8.570881 a 1.0713602,1.0713602 0 0 0 -1.07136,-1.07136 h -6.42816 a 1.0713602,1.0713602 0 0 0 -1.07136,1.07136 v 8.570881 z"
     id="path2"
     style="fill:#39424e;fill-opacity:1;stroke-width:2.14272" />
</svg>
