<?xml version="1.0" encoding="UTF-8" standalone="no"?>
<svg
   xmlns:dc="http://purl.org/dc/elements/1.1/"
   xmlns:cc="http://creativecommons.org/ns#"
   xmlns:rdf="http://www.w3.org/1999/02/22-rdf-syntax-ns#"
   xmlns:svg="http://www.w3.org/2000/svg"
   xmlns="http://www.w3.org/2000/svg"
   xmlns:xlink="http://www.w3.org/1999/xlink"
   xmlns:sodipodi="http://sodipodi.sourceforge.net/DTD/sodipodi-0.dtd"
   xmlns:inkscape="http://www.inkscape.org/namespaces/inkscape"
   width="40"
   height="40"
   fill="currentColor"
   class="bi bi-image"
   viewBox="0 0 40 40"
   version="1.1"
   id="svg6"
   sodipodi:docname="image-grad-40px.svg"
   inkscape:version="1.0.2 (e86c870879, 2021-01-15, custom)">
  <metadata
     id="metadata12">
    <rdf:RDF>
      <cc:Work
         rdf:about="">
        <dc:format>image/svg+xml</dc:format>
        <dc:type
           rdf:resource="http://purl.org/dc/dcmitype/StillImage" />
        <dc:title></dc:title>
      </cc:Work>
    </rdf:RDF>
  </metadata>
  <defs
     id="defs10">
    <linearGradient
       inkscape:collect="always"
       xlink:href="#linearGradient834"
       id="linearGradient836"
       x1="40.226192"
       y1="0.42809191"
       x2="0.21809559"
       y2="40.238636"
       gradientUnits="userSpaceOnUse" />
    <linearGradient
       inkscape:collect="always"
       id="linearGradient834">
      <stop
         style="stop-color:#5271ff;stop-opacity:1"
         offset="0"
         id="stop830" />
      <stop
         style="stop-color:#ff5757;stop-opacity:1"
         offset="0.49995556"
         id="stop864" />
      <stop
         style="stop-color:#5271ff;stop-opacity:1"
         offset="0.49995556"
         id="stop862" />
      <stop
         style="stop-color:#ff5757;stop-opacity:1"
         offset="1"
         id="stop832" />
    </linearGradient>
  </defs>
  <sodipodi:namedview
     pagecolor="#ffffff"
     bordercolor="#666666"
     borderopacity="1"
     objecttolerance="10"
     gridtolerance="10"
     guidetolerance="10"
     inkscape:pageopacity="0"
     inkscape:pageshadow="2"
     inkscape:window-width="1920"
     inkscape:window-height="1001"
     id="namedview8"
     showgrid="false"
     inkscape:zoom="9.170291"
     inkscape:cx="-13.577465"
     inkscape:cy="9.3506161"
     inkscape:window-x="-9"
     inkscape:window-y="41"
     inkscape:window-maximized="1"
     inkscape:current-layer="svg6"
     inkscape:document-rotation="0" />
  <path
     d="m 15,13.75 a 3.75,3.75 0 1 1 -7.5,0 3.75,3.75 0 0 1 7.5,0 z"
     id="path2"
     style="fill:url(#linearGradient836);fill-opacity:1;stroke-width:2.5;font-variation-settings:normal;opacity:1;vector-effect:none;stroke-linecap:butt;stroke-linejoin:miter;stroke-miterlimit:4;stroke-dasharray:none;stroke-dashoffset:0;stroke-opacity:1;stop-color:#000000;stop-opacity:1" />
  <path
     d="m 5,2.5 a 5,5 0 0 0 -5,5 v 25 a 5,5 0 0 0 5,5 h 30 a 5,5 0 0 0 5,-5 v -25 a 5,5 0 0 0 -5,-5 z M 35,5 a 2.5,2.5 0 0 1 2.5,2.5 V 23.75 L 28.057499,18.882499 A 1.25,1.25 0 0 0 26.615,19.115 L 17.34,28.39 10.69,23.96 A 1.25,1.25 0 0 0 9.115,24.115008 L 2.5,30 V 7.5 A 2.5,2.5 0 0 1 5,5 Z"
     id="path4"
     style="fill:url(#linearGradient836);fill-opacity:1;stroke-width:2.5;font-variation-settings:normal;opacity:1;vector-effect:none;stroke-linecap:butt;stroke-linejoin:miter;stroke-miterlimit:4;stroke-dasharray:none;stroke-dashoffset:0;stroke-opacity:1;stop-color:#000000;stop-opacity:1" />
</svg>
