<?xml version="1.0" encoding="UTF-8" standalone="no"?>
<svg
   xmlns:dc="http://purl.org/dc/elements/1.1/"
   xmlns:cc="http://creativecommons.org/ns#"
   xmlns:rdf="http://www.w3.org/1999/02/22-rdf-syntax-ns#"
   xmlns:svg="http://www.w3.org/2000/svg"
   xmlns="http://www.w3.org/2000/svg"
   xmlns:sodipodi="http://sodipodi.sourceforge.net/DTD/sodipodi-0.dtd"
   xmlns:inkscape="http://www.inkscape.org/namespaces/inkscape"
   width="25"
   height="25"
   fill="currentColor"
   class="bi bi-image"
   viewBox="0 0 25 25"
   version="1.1"
   id="svg6"
   sodipodi:docname="image-orange-25px.svg"
   inkscape:version="1.0.2 (e86c870879, 2021-01-15, custom)">
  <metadata
     id="metadata12">
    <rdf:RDF>
      <cc:Work
         rdf:about="">
        <dc:format>image/svg+xml</dc:format>
        <dc:type
           rdf:resource="http://purl.org/dc/dcmitype/StillImage" />
        <dc:title></dc:title>
      </cc:Work>
    </rdf:RDF>
  </metadata>
  <defs
     id="defs10" />
  <sodipodi:namedview
     pagecolor="#ffffff"
     bordercolor="#666666"
     borderopacity="1"
     objecttolerance="10"
     gridtolerance="10"
     guidetolerance="10"
     inkscape:pageopacity="0"
     inkscape:pageshadow="2"
     inkscape:window-width="1920"
     inkscape:window-height="1001"
     id="namedview8"
     showgrid="false"
     inkscape:zoom="9.170291"
     inkscape:cx="-13.577465"
     inkscape:cy="9.3506161"
     inkscape:window-x="-9"
     inkscape:window-y="41"
     inkscape:window-maximized="1"
     inkscape:current-layer="svg6"
     inkscape:document-rotation="0" />
  <path
     d="m 9.375,8.59375 a 2.34375,2.34375 0 1 1 -4.6875,0 2.34375,2.34375 0 0 1 4.6875,0 z"
     id="path2"
     style="fill:#ff5757;fill-opacity:1;stroke-width:1.5625" />
  <path
     d="M 3.125,1.5625 A 3.125,3.125 0 0 0 0,4.6875 v 15.625 a 3.125,3.125 0 0 0 3.125,3.125 h 18.75 A 3.125,3.125 0 0 0 25,20.3125 V 4.6875 a 3.125,3.125 0 0 0 -3.125,-3.125 z m 18.75,1.5625 a 1.5625,1.5625 0 0 1 1.5625,1.5625 v 10.15625 l -5.901563,-3.042188 a 0.78125,0.78125 0 0 0 -0.901562,0.145313 L 10.8375,17.74375 6.68125,14.975 A 0.78125,0.78125 0 0 0 5.696875,15.07188 L 1.5625,18.75 V 4.6875 A 1.5625,1.5625 0 0 1 3.125,3.125 Z"
     id="path4"
     style="fill:#ff5757;fill-opacity:1;stroke-width:1.5625" />
</svg>
