<?xml version="1.0" encoding="UTF-8" standalone="no"?>
<svg
   xmlns:dc="http://purl.org/dc/elements/1.1/"
   xmlns:cc="http://creativecommons.org/ns#"
   xmlns:rdf="http://www.w3.org/1999/02/22-rdf-syntax-ns#"
   xmlns:svg="http://www.w3.org/2000/svg"
   xmlns="http://www.w3.org/2000/svg"
   xmlns:sodipodi="http://sodipodi.sourceforge.net/DTD/sodipodi-0.dtd"
   xmlns:inkscape="http://www.inkscape.org/namespaces/inkscape"
   width="30"
   height="30"
   fill="currentColor"
   class="bi bi-image"
   viewBox="0 0 30 30"
   version="1.1"
   id="svg6"
   sodipodi:docname="image-orange-30px.svg"
   inkscape:version="1.0.2 (e86c870879, 2021-01-15, custom)">
  <metadata
     id="metadata12">
    <rdf:RDF>
      <cc:Work
         rdf:about="">
        <dc:format>image/svg+xml</dc:format>
        <dc:type
           rdf:resource="http://purl.org/dc/dcmitype/StillImage" />
        <dc:title></dc:title>
      </cc:Work>
    </rdf:RDF>
  </metadata>
  <defs
     id="defs10" />
  <sodipodi:namedview
     pagecolor="#ffffff"
     bordercolor="#666666"
     borderopacity="1"
     objecttolerance="10"
     gridtolerance="10"
     guidetolerance="10"
     inkscape:pageopacity="0"
     inkscape:pageshadow="2"
     inkscape:window-width="1920"
     inkscape:window-height="1001"
     id="namedview8"
     showgrid="false"
     inkscape:zoom="9.170291"
     inkscape:cx="-13.577465"
     inkscape:cy="9.3506161"
     inkscape:window-x="-9"
     inkscape:window-y="41"
     inkscape:window-maximized="1"
     inkscape:current-layer="svg6"
     inkscape:document-rotation="0" />
  <path
     d="m 11.25,10.3125 a 2.8125,2.8125 0 1 1 -5.625,0 2.8125,2.8125 0 0 1 5.625,0 z"
     id="path2"
     style="fill:#ff5757;fill-opacity:1;stroke-width:1.875" />
  <path
     d="M 3.75,1.875 A 3.75,3.75 0 0 0 0,5.625 v 18.75 a 3.75,3.75 0 0 0 3.75,3.75 h 22.5 A 3.75,3.75 0 0 0 30,24.375 V 5.625 a 3.75,3.75 0 0 0 -3.75,-3.75 z m 22.5,1.875 a 1.875,1.875 0 0 1 1.875,1.875 V 17.8125 L 21.043124,14.161874 A 0.9375,0.9375 0 0 0 19.96125,14.33625 L 13.005,21.2925 8.0175,17.97 A 0.9375,0.9375 0 0 0 6.83625,18.086256 L 1.875,22.5 V 5.625 A 1.875,1.875 0 0 1 3.75,3.75 Z"
     id="path4"
     style="fill:#ff5757;fill-opacity:1;stroke-width:1.875" />
</svg>
