<?xml version="1.0" encoding="UTF-8" standalone="no"?>
<svg
   xmlns:dc="http://purl.org/dc/elements/1.1/"
   xmlns:cc="http://creativecommons.org/ns#"
   xmlns:rdf="http://www.w3.org/1999/02/22-rdf-syntax-ns#"
   xmlns:svg="http://www.w3.org/2000/svg"
   xmlns="http://www.w3.org/2000/svg"
   xmlns:sodipodi="http://sodipodi.sourceforge.net/DTD/sodipodi-0.dtd"
   xmlns:inkscape="http://www.inkscape.org/namespaces/inkscape"
   width="20"
   height="20"
   fill="currentColor"
   class="bi bi-image"
   viewBox="0 0 20 20"
   version="1.1"
   id="svg6"
   sodipodi:docname="image-orange-20px.svg"
   inkscape:version="1.0.2 (e86c870879, 2021-01-15, custom)">
  <metadata
     id="metadata12">
    <rdf:RDF>
      <cc:Work
         rdf:about="">
        <dc:format>image/svg+xml</dc:format>
        <dc:type
           rdf:resource="http://purl.org/dc/dcmitype/StillImage" />
        <dc:title></dc:title>
      </cc:Work>
    </rdf:RDF>
  </metadata>
  <defs
     id="defs10" />
  <sodipodi:namedview
     pagecolor="#ffffff"
     bordercolor="#666666"
     borderopacity="1"
     objecttolerance="10"
     gridtolerance="10"
     guidetolerance="10"
     inkscape:pageopacity="0"
     inkscape:pageshadow="2"
     inkscape:window-width="1920"
     inkscape:window-height="1001"
     id="namedview8"
     showgrid="false"
     inkscape:zoom="9.170291"
     inkscape:cx="-13.577465"
     inkscape:cy="9.3506161"
     inkscape:window-x="-9"
     inkscape:window-y="41"
     inkscape:window-maximized="1"
     inkscape:current-layer="svg6"
     inkscape:document-rotation="0" />
  <path
     d="m 7.5,6.875 a 1.875,1.875 0 1 1 -3.75,0 1.875,1.875 0 0 1 3.75,0 z"
     id="path2"
     style="fill:#ff5757;fill-opacity:1;stroke-width:1.25" />
  <path
     d="M 2.5,1.25 A 2.5,2.5 0 0 0 0,3.75 v 12.5 a 2.5,2.5 0 0 0 2.5,2.5 h 15 A 2.5,2.5 0 0 0 20,16.25 V 3.75 a 2.5,2.5 0 0 0 -2.5,-2.5 z m 15,1.25 a 1.25,1.25 0 0 1 1.25,1.25 v 8.125 L 14.02875,9.4412496 A 0.625,0.625 0 0 0 13.3075,9.5575 L 8.67,14.195 5.345,11.98 A 0.625,0.625 0 0 0 4.5575,12.0575 L 1.25,15 V 3.75 A 1.25,1.25 0 0 1 2.5,2.5 Z"
     id="path4"
     style="fill:#ff5757;fill-opacity:1;stroke-width:1.25" />
</svg>
