<?xml version="1.0" encoding="UTF-8" standalone="no"?>
<svg
   xmlns:dc="http://purl.org/dc/elements/1.1/"
   xmlns:cc="http://creativecommons.org/ns#"
   xmlns:rdf="http://www.w3.org/1999/02/22-rdf-syntax-ns#"
   xmlns:svg="http://www.w3.org/2000/svg"
   xmlns="http://www.w3.org/2000/svg"
   xmlns:sodipodi="http://sodipodi.sourceforge.net/DTD/sodipodi-0.dtd"
   xmlns:inkscape="http://www.inkscape.org/namespaces/inkscape"
   width="20"
   height="20"
   fill="currentColor"
   class="bi bi-list"
   viewBox="0 0 20 20"
   version="1.1"
   id="svg4"
   sodipodi:docname="list colored 20px.svg"
   inkscape:version="1.0.2 (e86c870879, 2021-01-15, custom)">
  <metadata
     id="metadata10">
    <rdf:RDF>
      <cc:Work
         rdf:about="">
        <dc:format>image/svg+xml</dc:format>
        <dc:type
           rdf:resource="http://purl.org/dc/dcmitype/StillImage" />
        <dc:title></dc:title>
      </cc:Work>
    </rdf:RDF>
  </metadata>
  <defs
     id="defs8" />
  <sodipodi:namedview
     pagecolor="#ffffff"
     bordercolor="#666666"
     borderopacity="1"
     objecttolerance="10"
     gridtolerance="10"
     guidetolerance="10"
     inkscape:pageopacity="0"
     inkscape:pageshadow="2"
     inkscape:window-width="1920"
     inkscape:window-height="1001"
     id="namedview6"
     showgrid="false"
     inkscape:zoom="29.801074"
     inkscape:cx="8"
     inkscape:cy="9.5301837"
     inkscape:window-x="-9"
     inkscape:window-y="41"
     inkscape:window-maximized="1"
     inkscape:current-layer="svg4" />
  <path
     id="path2"
     d="m 3.7979198,-10.339759 a 0.5,0.5 0 0 0 -0.4882812,0.5 0.5,0.5 0 0 0 0.5,0.5 H 13.809639 a 0.5,0.5 0 0 0 0,-1 H 3.8096386 a 0.5,0.5 0 0 0 -0.011719,0 z m 0,4 a 0.5,0.5 0 0 0 -0.4882812,0.5 0.5,0.5 0 0 0 0.5,0.5 H 13.809639 a 0.5,0.5 0 0 0 0,-1 H 3.8096386 a 0.5,0.5 0 0 0 -0.011719,0 z m 0,4 a 0.5,0.5 0 0 0 -0.4882812,0.5 0.5,0.5 0 0 0 0.5,0.5 H 13.809639 a 0.5,0.5 0 0 0 0,-1 H 3.8096386 a 0.5,0.5 0 0 0 -0.011719,0 z" />
  <g
     id="g851"
     transform="matrix(1.8069273,0,0,1.8069273,-4.3632637,-2.2627981)">
    <path
       style="fill:#ffde59;stroke-width:0.0404819;stroke-linejoin:round"
       d="M 2.7404251,3.3331096 C 2.582259,3.2548186 2.4664944,3.0723546 2.4657462,2.9001704 2.4649585,2.718912 2.6133017,2.5040643 2.7665822,2.4644652 c 0.1261753,-0.032597 2.0545945,-0.051968 5.1734394,-0.051968 3.1298224,0 5.0461434,0.019337 5.1759044,0.05223 0.08839,0.022406 0.206154,0.1403833 0.262506,0.2629838 0.09238,0.2009801 5.38e-4,0.4556485 -0.213268,0.5913775 l -0.0857,0.054406 -5.1287566,-1.52e-5 -5.1287561,-1.52e-5 z"
       id="path837" />
    <path
       style="fill:#5271ff;fill-opacity:1;stroke-width:0.0404819;stroke-linejoin:round"
       d="M 2.8137876,7.2608421 C 2.7066198,7.2396779 2.580987,7.1606203 2.5132874,7.0717449 2.3315807,6.8332022 2.4097163,6.4890278 2.6773144,6.3492329 l 0.1030537,-0.053836 h 5.1233083 5.1233076 l 0.103054,0.053836 c 0.351257,0.183499 0.349597,0.6682763 -0.003,0.8618267 l -0.105339,0.057831 -5.0698788,0.00271 c -2.7883848,0.00149 -5.1005215,-0.00335 -5.1380326,-0.010759 z"
       id="path843" />
    <path
       style="fill:#ff5757;fill-opacity:1;stroke-width:0.0404819;stroke-linejoin:round"
       d="M 2.8144576,11.121378 C 2.6199168,11.033418 2.5168417,10.877101 2.5167437,10.66988 c -9.23e-5,-0.194978 0.09096,-0.344105 0.2687983,-0.440244 l 0.077108,-0.04169 h 5.1373498 5.1373482 l 0.07711,0.04169 c 0.177838,0.09614 0.26889,0.245266 0.268798,0.440244 -9.6e-5,0.207221 -0.103173,0.363539 -0.297714,0.451498 -0.08654,0.03913 -0.09911,0.03922 -5.1855412,0.03922 -5.0864358,0 -5.0990055,-9.5e-5 -5.1855432,-0.03922 z"
       id="path845" />
  </g>
</svg>
