<?xml version="1.0" encoding="UTF-8" standalone="no"?>
<svg
   xmlns:dc="http://purl.org/dc/elements/1.1/"
   xmlns:cc="http://creativecommons.org/ns#"
   xmlns:rdf="http://www.w3.org/1999/02/22-rdf-syntax-ns#"
   xmlns:svg="http://www.w3.org/2000/svg"
   xmlns="http://www.w3.org/2000/svg"
   xmlns:sodipodi="http://sodipodi.sourceforge.net/DTD/sodipodi-0.dtd"
   xmlns:inkscape="http://www.inkscape.org/namespaces/inkscape"
   width="20"
   height="20"
   fill="currentColor"
   class="bi bi-pencil"
   viewBox="0 0 20 20"
   version="1.1"
   id="svg4"
   sodipodi:docname="pencil-orange-20px.svg"
   inkscape:version="1.0.2 (e86c870879, 2021-01-15, custom)">
  <metadata
     id="metadata10">
    <rdf:RDF>
      <cc:Work
         rdf:about="">
        <dc:format>image/svg+xml</dc:format>
        <dc:type
           rdf:resource="http://purl.org/dc/dcmitype/StillImage" />
        <dc:title></dc:title>
      </cc:Work>
    </rdf:RDF>
  </metadata>
  <defs
     id="defs8" />
  <sodipodi:namedview
     pagecolor="#ffffff"
     bordercolor="#666666"
     borderopacity="1"
     objecttolerance="10"
     gridtolerance="10"
     guidetolerance="10"
     inkscape:pageopacity="0"
     inkscape:pageshadow="2"
     inkscape:window-width="1920"
     inkscape:window-height="1001"
     id="namedview6"
     showgrid="false"
     inkscape:zoom="9.1702911"
     inkscape:cx="-19.166853"
     inkscape:cy="14.753116"
     inkscape:window-x="-9"
     inkscape:window-y="41"
     inkscape:window-maximized="1"
     inkscape:current-layer="svg4"
     inkscape:document-rotation="0" />
  <path
     d="m 15.181594,0.18360931 a 0.62497266,0.62497266 0 0 1 0.88496,0 L 19.81639,3.9334452 a 0.62497266,0.62497266 0 0 1 0,0.8849613 L 7.3169366,17.31786 a 0.62497266,0.62497266 0 0 1 -0.20999,0.137493 L 0.85722004,19.955244 A 0.62497266,0.62497266 0 0 1 0.04475552,19.14278 L 2.5446461,12.893053 A 0.62497266,0.62497266 0 0 1 2.68214,12.683064 Z m -1.1737,2.94237129 2.866125,2.8661242 1.616179,-1.6161789 -2.866124,-2.8661245 z M 15.990307,6.8758162 13.124183,4.009692 4.9995386,12.134337 v 0.366235 h 0.6249728 a 0.62497266,0.62497266 0 0 1 0.6249731,0.624972 v 0.624972 h 0.6249721 a 0.62497266,0.62497266 0 0 1 0.624972,0.624972 v 0.624973 H 7.8656632 Z M 3.7895917,13.344284 3.6570975,13.476777 1.7471811,18.25282 6.5232224,16.342904 6.6557164,16.210409 A 0.62497266,0.62497266 0 0 1 6.2494845,15.625434 V 15.000461 H 5.6245114 A 0.62497266,0.62497266 0 0 1 4.9995386,14.375488 V 13.750516 H 4.3745661 A 0.62497266,0.62497266 0 0 1 3.7895917,13.344284 Z"
     id="path2"
     style="fill:#ff5757;fill-opacity:1;stroke-width:1.24996" />
</svg>
