<?xml version="1.0" encoding="UTF-8" standalone="no"?>
<svg
   xmlns:dc="http://purl.org/dc/elements/1.1/"
   xmlns:cc="http://creativecommons.org/ns#"
   xmlns:rdf="http://www.w3.org/1999/02/22-rdf-syntax-ns#"
   xmlns:svg="http://www.w3.org/2000/svg"
   xmlns="http://www.w3.org/2000/svg"
   xmlns:sodipodi="http://sodipodi.sourceforge.net/DTD/sodipodi-0.dtd"
   xmlns:inkscape="http://www.inkscape.org/namespaces/inkscape"
   width="25"
   height="25"
   fill="currentColor"
   class="bi bi-plus-circle"
   viewBox="0 0 25 25"
   version="1.1"
   id="svg6"
   sodipodi:docname="plus-circle-white-25px.svg"
   inkscape:version="1.0.2 (e86c870879, 2021-01-15, custom)">
  <metadata
     id="metadata12">
    <rdf:RDF>
      <cc:Work
         rdf:about="">
        <dc:format>image/svg+xml</dc:format>
        <dc:type
           rdf:resource="http://purl.org/dc/dcmitype/StillImage" />
        <dc:title></dc:title>
      </cc:Work>
    </rdf:RDF>
  </metadata>
  <defs
     id="defs10" />
  <sodipodi:namedview
     pagecolor="#5271ff"
     bordercolor="#666666"
     borderopacity="1"
     objecttolerance="10"
     gridtolerance="10"
     guidetolerance="10"
     inkscape:pageopacity="1"
     inkscape:pageshadow="2"
     inkscape:window-width="1920"
     inkscape:window-height="1001"
     id="namedview8"
     showgrid="false"
     inkscape:zoom="25.9375"
     inkscape:cx="8.727779"
     inkscape:cy="10.02639"
     inkscape:window-x="-9"
     inkscape:window-y="41"
     inkscape:window-maximized="1"
     inkscape:current-layer="svg6"
     inkscape:document-rotation="0" />
  <path
     d="m 12.5,23.4375 a 10.9375,10.9375 0 1 1 0,-21.875 10.9375,10.9375 0 0 1 0,21.875 z M 12.5,25 a 12.5,12.5 0 1 0 0,-25 12.5,12.5 0 0 0 0,25 z"
     id="path2"
     style="fill:#ffffff;fill-opacity:1;stroke-width:1.5625" />
  <path
     d="m 12.5,6.25 a 0.78125,0.78125 0 0 1 0.78125,0.78125 v 4.6875 h 4.6875 a 0.78125,0.78125 0 0 1 0,1.5625 h -4.6875 v 4.6875 a 0.78125,0.78125 0 0 1 -1.5625,0 v -4.6875 h -4.6875 a 0.78125,0.78125 0 0 1 0,-1.5625 h 4.6875 V 7.03125 A 0.78125,0.78125 0 0 1 12.5,6.25 Z"
     id="path4"
     style="fill:#ffffff;fill-opacity:1;stroke-width:1.5625" />
</svg>
