<?xml version="1.0" encoding="UTF-8" standalone="no"?>
<svg
   xmlns:dc="http://purl.org/dc/elements/1.1/"
   xmlns:cc="http://creativecommons.org/ns#"
   xmlns:rdf="http://www.w3.org/1999/02/22-rdf-syntax-ns#"
   xmlns:svg="http://www.w3.org/2000/svg"
   xmlns="http://www.w3.org/2000/svg"
   xmlns:sodipodi="http://sodipodi.sourceforge.net/DTD/sodipodi-0.dtd"
   xmlns:inkscape="http://www.inkscape.org/namespaces/inkscape"
   width="16"
   height="16"
   fill="currentColor"
   class="bi bi-binoculars"
   viewBox="0 0 16 16"
   version="1.1"
   id="svg4"
   sodipodi:docname="preview-white-16px.svg"
   inkscape:version="1.0.2 (e86c870879, 2021-01-15, custom)">
  <metadata
     id="metadata10">
    <rdf:RDF>
      <cc:Work
         rdf:about="">
        <dc:format>image/svg+xml</dc:format>
        <dc:type
           rdf:resource="http://purl.org/dc/dcmitype/StillImage" />
        <dc:title></dc:title>
      </cc:Work>
    </rdf:RDF>
  </metadata>
  <defs
     id="defs8" />
  <sodipodi:namedview
     pagecolor="#5271ff"
     bordercolor="#666666"
     borderopacity="1"
     objecttolerance="10"
     gridtolerance="10"
     guidetolerance="10"
     inkscape:pageopacity="0"
     inkscape:pageshadow="2"
     inkscape:window-width="1920"
     inkscape:window-height="1001"
     id="namedview6"
     showgrid="false"
     inkscape:zoom="25.9375"
     inkscape:cx="7.5759676"
     inkscape:cy="10.895895"
     inkscape:window-x="-9"
     inkscape:window-y="41"
     inkscape:window-maximized="1"
     inkscape:current-layer="svg4" />
  <path
     d="m 2.6666668,1.6 a 1.6,1.6 0 0 1 1.6,-1.6 h 1.0666667 a 1.6,1.6 0 0 1 1.6,1.6 V 4.2666667 H 9.0666668 V 1.6 A 1.6,1.6 0 0 1 10.666666,0 h 1.066667 a 1.6,1.6 0 0 1 1.6,1.6 v 2.5408 a 0.53333333,0.53333333 0 0 0 0.2944,0.4768 L 14.5824,5.0944 a 1.6,1.6 0 0 1 0.884266,1.4314667 V 14.4 a 1.6,1.6 0 0 1 -1.6,1.6 h -3.2 A 1.6,1.6 0 0 1 9.0666668,14.4 V 11.2 A 0.53333333,0.53333333 0 0 1 9.2224002,10.8224 L 10.133333,9.912533 V 9.066667 A 0.53333333,0.53333333 0 0 0 9.6000005,8.5333333 H 6.4000002 A 0.53333333,0.53333333 0 0 0 5.8666668,9.066667 V 9.912533 L 6.7776002,10.8224 A 0.53333333,0.53333333 0 0 1 6.9333335,11.2 v 3.2 a 1.6,1.6 0 0 1 -1.6,1.6 h -3.2 A 1.6,1.6 0 0 1 0.53333346,14.4 V 6.5258667 A 1.6,1.6 0 0 1 1.4186668,5.0944 l 0.9536,-0.4768 a 0.53333333,0.53333333 0 0 0 0.2944,-0.4768 z m 1.6,-0.5333333 A 0.53333333,0.53333333 0 0 0 3.7333335,1.6 V 2.1333333 H 5.8666668 V 1.6 A 0.53333333,0.53333333 0 0 0 5.3333335,1.0666667 Z M 5.8666668,3.2 H 3.7333335 V 4.1408 A 1.6,1.6 0 0 1 2.8480002,5.5722667 l -0.9536,0.4768 a 0.53333333,0.53333333 0 0 0 -0.2944,0.4768 V 12.8 H 5.8666668 V 11.4208 L 4.9557335,10.510933 a 0.53333333,0.53333333 0 0 1 -0.1557333,-0.3776 V 9.066667 a 1.6,1.6 0 0 1 1.6,-1.6000003 H 9.6000005 A 1.6,1.6 0 0 1 11.2,9.066667 v 1.066666 a 0.53333333,0.53333333 0 0 1 -0.155734,0.3776 L 10.133333,11.4208 V 12.8 H 14.4 V 6.5258667 a 0.53333333,0.53333333 0 0 0 -0.2944,-0.4768 l -0.954667,-0.4768 A 1.6,1.6 0 0 1 12.266666,4.1408 V 3.2 H 10.133333 V 4.8 A 0.53333333,0.53333333 0 0 1 9.6000005,5.3333333 H 6.4000002 A 0.53333333,0.53333333 0 0 1 5.8666668,4.8 Z M 10.133333,2.1333333 h 2.133333 V 1.6 A 0.53333333,0.53333333 0 0 0 11.733333,1.0666667 H 10.666666 A 0.53333333,0.53333333 0 0 0 10.133333,1.6 Z M 14.4,13.866667 H 10.133333 V 14.4 a 0.53333333,0.53333333 0 0 0 0.533333,0.533333 h 3.2 A 0.53333333,0.53333333 0 0 0 14.4,14.4 Z m -8.5333332,0 H 1.6000002 V 14.4 a 0.53333333,0.53333333 0 0 0 0.5333333,0.533333 h 3.2 A 0.53333333,0.53333333 0 0 0 5.8666668,14.4 Z"
     id="path2"
     style="fill:#ffffff;fill-opacity:1;stroke-width:1.06667" />
</svg>
