<?xml version="1.0" encoding="UTF-8" standalone="no"?>
<svg
   xmlns:dc="http://purl.org/dc/elements/1.1/"
   xmlns:cc="http://creativecommons.org/ns#"
   xmlns:rdf="http://www.w3.org/1999/02/22-rdf-syntax-ns#"
   xmlns:svg="http://www.w3.org/2000/svg"
   xmlns="http://www.w3.org/2000/svg"
   xmlns:sodipodi="http://sodipodi.sourceforge.net/DTD/sodipodi-0.dtd"
   xmlns:inkscape="http://www.inkscape.org/namespaces/inkscape"
   width="20"
   height="20"
   fill="currentColor"
   class="bi bi-binoculars-fill"
   viewBox="0 0 20 20"
   version="1.1"
   id="svg4"
   sodipodi:docname="preview-fill-white-20px.svg"
   inkscape:version="1.0.2 (e86c870879, 2021-01-15, custom)">
  <metadata
     id="metadata10">
    <rdf:RDF>
      <cc:Work
         rdf:about="">
        <dc:format>image/svg+xml</dc:format>
        <dc:type
           rdf:resource="http://purl.org/dc/dcmitype/StillImage" />
        <dc:title></dc:title>
      </cc:Work>
    </rdf:RDF>
  </metadata>
  <defs
     id="defs8" />
  <sodipodi:namedview
     pagecolor="#5271ff"
     bordercolor="#666666"
     borderopacity="1"
     objecttolerance="10"
     gridtolerance="10"
     guidetolerance="10"
     inkscape:pageopacity="0"
     inkscape:pageshadow="2"
     inkscape:window-width="1920"
     inkscape:window-height="1001"
     id="namedview6"
     showgrid="false"
     inkscape:zoom="25.9375"
     inkscape:cx="0.71026822"
     inkscape:cy="12.284844"
     inkscape:window-x="-9"
     inkscape:window-y="41"
     inkscape:window-maximized="1"
     inkscape:current-layer="svg4" />
  <path
     d="m 5.3333332,0 a 2,2 0 0 0 -2,2 V 2.6666667 H 8.6666665 V 2 a 2,2 0 0 0 -2,-2 z M 8.6666665,4 V 5.3333333 H 11.333333 V 4 h 5.333333 v 1.176 a 0.66666667,0.66666667 0 0 0 0.368,0.596 l 1.193333,0.596 a 2,2 0 0 1 1.105334,1.7893333 V 16 h -8 v -2 a 0.66666667,0.66666667 0 0 1 0.194666,-0.472 l 1.138667,-1.137333 V 11.333333 A 0.66666667,0.66666667 0 0 0 11.999999,10.666667 H 7.9999998 a 0.66666667,0.66666667 0 0 0 -0.6666666,0.666666 v 1.057334 L 8.4719998,13.528 A 0.66666667,0.66666667 0 0 1 8.6666665,14 v 2 H 0.66666644 V 8.1573333 A 2,2 0 0 1 1.7733332,6.368 l 1.192,-0.596 a 0.66666667,0.66666667 0 0 0 0.368,-0.596 V 4 Z M 0.66666644,17.333333 V 18 a 2,2 0 0 0 2.00000006,2 h 4 a 2,2 0 0 0 2,-2 v -0.666667 z m 10.66666656,0 V 18 a 2,2 0 0 0 2,2 h 4 a 2,2 0 0 0 2,-2 V 17.333333 Z M 16.666666,2.6666667 H 11.333333 V 2 a 2,2 0 0 1 2,-2 h 1.333333 a 2,2 0 0 1 2,2 z"
     id="path2"
     style="stroke-width:1.33333;fill:#ffffff;fill-opacity:1" />
</svg>
