<?xml version="1.0" encoding="UTF-8" standalone="no"?>
<svg
   xmlns:dc="http://purl.org/dc/elements/1.1/"
   xmlns:cc="http://creativecommons.org/ns#"
   xmlns:rdf="http://www.w3.org/1999/02/22-rdf-syntax-ns#"
   xmlns:svg="http://www.w3.org/2000/svg"
   xmlns="http://www.w3.org/2000/svg"
   xmlns:sodipodi="http://sodipodi.sourceforge.net/DTD/sodipodi-0.dtd"
   xmlns:inkscape="http://www.inkscape.org/namespaces/inkscape"
   width="20"
   height="20"
   fill="currentColor"
   class="bi bi-binoculars"
   viewBox="0 0 20 20"
   version="1.1"
   id="svg4"
   sodipodi:docname="preview-white-20px.svg"
   inkscape:version="1.0.2 (e86c870879, 2021-01-15, custom)">
  <metadata
     id="metadata10">
    <rdf:RDF>
      <cc:Work
         rdf:about="">
        <dc:format>image/svg+xml</dc:format>
        <dc:type
           rdf:resource="http://purl.org/dc/dcmitype/StillImage" />
        <dc:title></dc:title>
      </cc:Work>
    </rdf:RDF>
  </metadata>
  <defs
     id="defs8" />
  <sodipodi:namedview
     pagecolor="#5271ff"
     bordercolor="#666666"
     borderopacity="1"
     objecttolerance="10"
     gridtolerance="10"
     guidetolerance="10"
     inkscape:pageopacity="0"
     inkscape:pageshadow="2"
     inkscape:window-width="1920"
     inkscape:window-height="1001"
     id="namedview6"
     showgrid="false"
     inkscape:zoom="25.9375"
     inkscape:cx="7.5759676"
     inkscape:cy="10.895895"
     inkscape:window-x="-9"
     inkscape:window-y="41"
     inkscape:window-maximized="1"
     inkscape:current-layer="svg4" />
  <path
     d="m 3.3333338,2 a 2,2 0 0 1 2,-2 h 1.3333334 a 2,2 0 0 1 2,2 V 5.3333334 H 11.333334 V 2 a 2,2 0 0 1 1.999999,-2 h 1.333334 a 2,2 0 0 1 2,2 v 3.176 a 0.66666666,0.66666666 0 0 0 0.368,0.596 l 1.193334,0.596 a 2,2 0 0 1 1.105332,1.7893334 V 18 a 2,2 0 0 1 -2,2 h -4 a 2,2 0 0 1 -1.999999,-2 v -4 a 0.66666666,0.66666666 0 0 1 0.194667,-0.472 l 1.138666,-1.137334 V 11.333334 A 0.66666666,0.66666666 0 0 0 12.000001,10.666667 H 8.0000006 a 0.66666666,0.66666666 0 0 0 -0.6666668,0.666667 v 1.057332 L 8.4720006,13.528 A 0.66666666,0.66666666 0 0 1 8.6666672,14 v 4 a 2,2 0 0 1 -2,2 h -4 A 2,2 0 0 1 0.66666719,18 V 8.1573334 A 2,2 0 0 1 1.7733338,6.368 l 1.192,-0.596 a 0.66666666,0.66666666 0 0 0 0.368,-0.596 z m 2,-0.6666666 A 0.66666666,0.66666666 0 0 0 4.6666672,2 V 2.6666666 H 7.3333338 V 2 A 0.66666666,0.66666666 0 0 0 6.6666672,1.3333334 Z M 7.3333338,4 H 4.6666672 V 5.176 A 2,2 0 0 1 3.5600006,6.9653334 l -1.192,0.596 a 0.66666666,0.66666666 0 0 0 -0.368,0.596 V 16 H 7.3333338 V 14.276 L 6.1946672,13.138666 a 0.66666666,0.66666666 0 0 1 -0.1946666,-0.472 v -1.333332 a 2,2 0 0 1 2,-2.0000006 h 4.0000004 a 2,2 0 0 1 2,2.0000006 v 1.333332 a 0.66666666,0.66666666 0 0 1 -0.194668,0.472 L 12.666667,14.276 V 16 h 5.333334 V 8.1573334 a 0.66666666,0.66666666 0 0 0 -0.368,-0.596 l -1.193334,-0.596 A 2,2 0 0 1 15.333333,5.176 V 4 H 12.666667 V 6 A 0.66666666,0.66666666 0 0 1 12.000001,6.6666666 H 8.0000006 A 0.66666666,0.66666666 0 0 1 7.3333338,6 Z M 12.666667,2.6666666 h 2.666666 V 2 A 0.66666666,0.66666666 0 0 0 14.666667,1.3333334 H 13.333333 A 0.66666666,0.66666666 0 0 0 12.666667,2 Z M 18.000001,17.333334 H 12.666667 V 18 a 0.66666666,0.66666666 0 0 0 0.666666,0.666666 h 4 A 0.66666666,0.66666666 0 0 0 18.000001,18 Z m -10.6666672,0 H 2.0000006 V 18 a 0.66666666,0.66666666 0 0 0 0.6666666,0.666666 h 4 A 0.66666666,0.66666666 0 0 0 7.3333338,18 Z"
     id="path2"
     style="fill:#ffffff;fill-opacity:1;stroke-width:1.33334" />
</svg>
