<?xml version="1.0" encoding="UTF-8" standalone="no"?>
<svg
   xmlns:dc="http://purl.org/dc/elements/1.1/"
   xmlns:cc="http://creativecommons.org/ns#"
   xmlns:rdf="http://www.w3.org/1999/02/22-rdf-syntax-ns#"
   xmlns:svg="http://www.w3.org/2000/svg"
   xmlns="http://www.w3.org/2000/svg"
   xmlns:sodipodi="http://sodipodi.sourceforge.net/DTD/sodipodi-0.dtd"
   xmlns:inkscape="http://www.inkscape.org/namespaces/inkscape"
   width="25"
   height="25"
   fill="currentColor"
   class="bi bi-binoculars"
   viewBox="0 0 25 25"
   version="1.1"
   id="svg4"
   sodipodi:docname="preview-white-25px.svg"
   inkscape:version="1.0.2 (e86c870879, 2021-01-15, custom)">
  <metadata
     id="metadata10">
    <rdf:RDF>
      <cc:Work
         rdf:about="">
        <dc:format>image/svg+xml</dc:format>
        <dc:type
           rdf:resource="http://purl.org/dc/dcmitype/StillImage" />
        <dc:title></dc:title>
      </cc:Work>
    </rdf:RDF>
  </metadata>
  <defs
     id="defs8" />
  <sodipodi:namedview
     pagecolor="#5271ff"
     bordercolor="#666666"
     borderopacity="1"
     objecttolerance="10"
     gridtolerance="10"
     guidetolerance="10"
     inkscape:pageopacity="0"
     inkscape:pageshadow="2"
     inkscape:window-width="1920"
     inkscape:window-height="1001"
     id="namedview6"
     showgrid="false"
     inkscape:zoom="25.9375"
     inkscape:cx="7.5759676"
     inkscape:cy="10.895895"
     inkscape:window-x="-9"
     inkscape:window-y="41"
     inkscape:window-maximized="1"
     inkscape:current-layer="svg4" />
  <path
     d="m 4.1666673,2.5 a 2.5,2.5 0 0 1 2.5,-2.5 H 8.333334 a 2.5,2.5 0 0 1 2.5,2.5 v 4.1666667 h 3.333334 V 2.5 A 2.5,2.5 0 0 1 16.666666,0 h 1.666668 a 2.5,2.5 0 0 1 2.5,2.5 v 3.97 a 0.83333332,0.83333332 0 0 0 0.46,0.745 l 1.491667,0.745 a 2.5,2.5 0 0 1 1.381665,2.236667 V 22.5 a 2.5,2.5 0 0 1 -2.5,2.5 h -5 a 2.5,2.5 0 0 1 -2.499998,-2.5 v -5 a 0.83333332,0.83333332 0 0 1 0.243333,-0.59 l 1.423333,-1.421668 v -1.321664 a 0.83333332,0.83333332 0 0 0 -0.833333,-0.833334 h -5 a 0.83333332,0.83333332 0 0 0 -0.8333337,0.833334 v 1.321665 L 10.590001,16.91 a 0.83333332,0.83333332 0 0 1 0.243333,0.59 v 5 a 2.5,2.5 0 0 1 -2.5,2.5 h -5 A 2.5,2.5 0 0 1 0.83333404,22.5 V 10.196667 A 2.5,2.5 0 0 1 2.2166673,7.96 l 1.49,-0.745 a 0.83333332,0.83333332 0 0 0 0.46,-0.745 z m 2.5,-0.8333333 A 0.83333332,0.83333332 0 0 0 5.833334,2.5 V 3.3333333 H 9.1666673 V 2.5 A 0.83333332,0.83333332 0 0 0 8.333334,1.6666667 Z M 9.1666673,5 H 5.833334 V 6.47 A 2.5,2.5 0 0 1 4.4500008,8.7066668 l -1.49,0.7449999 a 0.83333332,0.83333332 0 0 0 -0.46,0.7450003 V 20 H 9.1666673 V 17.845 L 7.743334,16.423332 A 0.83333332,0.83333332 0 0 1 7.5000008,15.833333 v -1.666665 a 2.5,2.5 0 0 1 2.5000002,-2.500001 h 5 a 2.5,2.5 0 0 1 2.5,2.500001 v 1.666665 a 0.83333332,0.83333332 0 0 1 -0.243335,0.589999 L 15.833334,17.845 V 20 h 6.666667 v -9.803333 a 0.83333332,0.83333332 0 0 0 -0.46,-0.7450002 l -1.491667,-0.745 A 2.5,2.5 0 0 1 19.166666,6.47 V 5 h -3.333332 v 2.5 a 0.83333332,0.83333332 0 0 1 -0.833333,0.8333333 h -5 A 0.83333332,0.83333332 0 0 1 9.1666673,7.5 Z M 15.833334,3.3333333 h 3.333332 V 2.5 A 0.83333332,0.83333332 0 0 0 18.333334,1.6666667 H 16.666666 A 0.83333332,0.83333332 0 0 0 15.833334,2.5 Z M 22.500001,21.666668 H 15.833334 V 22.5 a 0.83333332,0.83333332 0 0 0 0.833332,0.833332 h 5 A 0.83333332,0.83333332 0 0 0 22.500001,22.5 Z m -13.3333337,0 H 2.5000008 V 22.5 a 0.83333332,0.83333332 0 0 0 0.8333332,0.833332 h 5 A 0.83333332,0.83333332 0 0 0 9.1666673,22.5 Z"
     id="path2"
     style="fill:#ffffff;fill-opacity:1;stroke-width:1.66668" />
</svg>
