<?xml version="1.0" encoding="UTF-8" standalone="no"?>
<svg
   xmlns:osb="http://www.openswatchbook.org/uri/2009/osb"
   xmlns:dc="http://purl.org/dc/elements/1.1/"
   xmlns:cc="http://creativecommons.org/ns#"
   xmlns:rdf="http://www.w3.org/1999/02/22-rdf-syntax-ns#"
   xmlns:svg="http://www.w3.org/2000/svg"
   xmlns="http://www.w3.org/2000/svg"
   xmlns:sodipodi="http://sodipodi.sourceforge.net/DTD/sodipodi-0.dtd"
   xmlns:inkscape="http://www.inkscape.org/namespaces/inkscape"
   width="20"
   height="20"
   fill="currentColor"
   class="bi bi-search"
   viewBox="0 0 20 20"
   version="1.1"
   id="svg4"
   sodipodi:docname="search-F5F5F5-white20px-stroke.svg"
   inkscape:version="1.0.2 (e86c870879, 2021-01-15, custom)">
  <metadata
     id="metadata10">
    <rdf:RDF>
      <cc:Work
         rdf:about="">
        <dc:format>image/svg+xml</dc:format>
        <dc:type
           rdf:resource="http://purl.org/dc/dcmitype/StillImage" />
        <dc:title></dc:title>
      </cc:Work>
    </rdf:RDF>
  </metadata>
  <defs
     id="defs8">
    <linearGradient
       id="linearGradient3061"
       osb:paint="solid">
      <stop
         style="stop-color:#000000;stop-opacity:1;"
         offset="0"
         id="stop3059" />
    </linearGradient>
  </defs>
  <sodipodi:namedview
     pagecolor="#ffde59"
     bordercolor="#666666"
     borderopacity="1"
     objecttolerance="10"
     gridtolerance="10"
     guidetolerance="10"
     inkscape:pageopacity="0"
     inkscape:pageshadow="2"
     inkscape:window-width="1920"
     inkscape:window-height="1001"
     id="namedview6"
     showgrid="false"
     inkscape:zoom="36.686857"
     inkscape:cx="8.1120844"
     inkscape:cy="9.3377125"
     inkscape:window-x="-9"
     inkscape:window-y="41"
     inkscape:window-maximized="1"
     inkscape:current-layer="svg4" />
  <path
     id="path2"
     style="fill:#f5f5f5;fill-opacity:1;stroke:#f5f5f5;stroke-width:2.603;stroke-miterlimit:4;stroke-dasharray:none;stroke-dashoffset:0;stroke-opacity:0.960784"
     d="M 8.2869958,1.3038465 C 3.5035377,1.3478898 0.15161953,6.0413462 1.6619799,10.58028 c 1.5103603,4.538934 7.0061554,6.288255 10.8622891,3.457417 0.03254,0.04339 0.830946,-0.214545 0.869995,-0.174412 l 3.958194,4.067224 c 1.022301,1.071925 1.924374,0.333398 0.852449,-0.688903 l -4.012709,-3.903678 c 0,0 -0.107135,-0.783026 -0.150986,-0.815479 C 17.473495,7.8400559 14.092361,1.2480893 8.2869958,1.3038465 Z m 0.072881,1.0847417 c 3.2923672,0.00271 5.9601582,2.6720161 5.9609952,5.9643846 0,3.2949772 -2.671105,5.9660772 -5.9660797,5.9660772 -3.2949748,0 -5.9660798,-2.6711 -5.9660798,-5.9660772 8.381e-4,-3.2963397 2.6748258,-5.9672913 5.9711643,-5.9643846 z"
     sodipodi:nodetypes="cscccccccccscc" />
</svg>
