<?xml version="1.0" encoding="UTF-8" standalone="no"?>
<svg
   xmlns:dc="http://purl.org/dc/elements/1.1/"
   xmlns:cc="http://creativecommons.org/ns#"
   xmlns:rdf="http://www.w3.org/1999/02/22-rdf-syntax-ns#"
   xmlns:svg="http://www.w3.org/2000/svg"
   xmlns="http://www.w3.org/2000/svg"
   xmlns:sodipodi="http://sodipodi.sourceforge.net/DTD/sodipodi-0.dtd"
   xmlns:inkscape="http://www.inkscape.org/namespaces/inkscape"
   width="20"
   height="20"
   fill="currentColor"
   class="bi bi-star-half"
   viewBox="0 0 20 20"
   version="1.1"
   id="svg4"
   sodipodi:docname="star-half filled 20px yellow.svg"
   inkscape:version="1.0.2 (e86c870879, 2021-01-15, custom)">
  <metadata
     id="metadata10">
    <rdf:RDF>
      <cc:Work
         rdf:about="">
        <dc:format>image/svg+xml</dc:format>
        <dc:type
           rdf:resource="http://purl.org/dc/dcmitype/StillImage" />
        <dc:title></dc:title>
      </cc:Work>
    </rdf:RDF>
  </metadata>
  <defs
     id="defs8" />
  <sodipodi:namedview
     pagecolor="#ffffff"
     bordercolor="#666666"
     borderopacity="1"
     objecttolerance="10"
     gridtolerance="10"
     guidetolerance="10"
     inkscape:pageopacity="0"
     inkscape:pageshadow="2"
     inkscape:window-width="1920"
     inkscape:window-height="1001"
     id="namedview6"
     showgrid="false"
     inkscape:zoom="51.875"
     inkscape:cx="5.686747"
     inkscape:cy="11.084337"
     inkscape:window-x="-9"
     inkscape:window-y="41"
     inkscape:window-maximized="1"
     inkscape:current-layer="svg4" />
  <path
     d="M 6.6900599,6.3984912 9.4200753,0.98971078 A 0.64500364,0.64500364 0 0 1 9.9975786,0.62470872 c 0.2287514,0 0.4575024,0.12125068 0.5812534,0.36500206 l 2.730015,5.40878042 6.122535,0.8700049 a 0.67125378,0.67125378 0 0 1 0.566253,0.6312536 0.68750388,0.68750388 0 0 1 -0.212501,0.5562531 l -4.403775,4.1950242 1.037506,5.912533 c 0.0975,0.553753 -0.450003,0.987506 -0.932505,0.740004 L 9.9975786,16.483548 4.5112977,19.303564 a 0.64875366,0.64875366 0 0 1 -0.1825011,0.0625 c -0.4262524,0.075 -0.8350047,-0.317502 -0.7500042,-0.802505 L 4.6162982,12.651027 0.21377339,8.4560028 A 0.68750388,0.68750388 0 0 1 2.2181551e-5,7.95225 0.73750416,0.73750416 0 0 1 0.10502278,7.5747479 0.64125361,0.64125361 0 0 1 0.56752538,7.2684961 Z M 9.9975786,15.03354 c 0.1000004,0 0.2000014,0.0225 0.2900014,0.07 l 4.607526,2.367513 -0.867505,-4.946278 a 0.70500397,0.70500397 0 0 1 0.203752,-0.631253 l 3.63252,-3.4625203 -5.065028,-0.7200041 a 0.6562537,0.6562537 0 0 1 -0.491253,-0.360002 l -2.307513,-4.5725258 -0.0025,0.00375 V 15.03229 Z"
     id="path2"
     style="stroke-width:1.25001;fill:#ffde59;fill-opacity:1" />
</svg>
