<?xml version="1.0" encoding="UTF-8" standalone="no"?>
<svg
   xmlns:dc="http://purl.org/dc/elements/1.1/"
   xmlns:cc="http://creativecommons.org/ns#"
   xmlns:rdf="http://www.w3.org/1999/02/22-rdf-syntax-ns#"
   xmlns:svg="http://www.w3.org/2000/svg"
   xmlns="http://www.w3.org/2000/svg"
   xmlns:sodipodi="http://sodipodi.sourceforge.net/DTD/sodipodi-0.dtd"
   xmlns:inkscape="http://www.inkscape.org/namespaces/inkscape"
   width="20"
   height="20"
   fill="currentColor"
   class="bi bi-star"
   viewBox="0 0 20 20"
   version="1.1"
   id="svg4"
   sodipodi:docname="star-yellow-20px.svg"
   inkscape:version="1.0.2 (e86c870879, 2021-01-15, custom)">
  <metadata
     id="metadata10">
    <rdf:RDF>
      <cc:Work
         rdf:about="">
        <dc:format>image/svg+xml</dc:format>
        <dc:type
           rdf:resource="http://purl.org/dc/dcmitype/StillImage" />
        <dc:title></dc:title>
      </cc:Work>
    </rdf:RDF>
  </metadata>
  <defs
     id="defs8" />
  <sodipodi:namedview
     pagecolor="#ffffff"
     bordercolor="#666666"
     borderopacity="1"
     objecttolerance="10"
     gridtolerance="10"
     guidetolerance="10"
     inkscape:pageopacity="0"
     inkscape:pageshadow="2"
     inkscape:window-width="1920"
     inkscape:window-height="1001"
     id="namedview6"
     showgrid="false"
     inkscape:zoom="51.875"
     inkscape:cx="5.686747"
     inkscape:cy="16.481928"
     inkscape:window-x="-9"
     inkscape:window-y="41"
     inkscape:window-maximized="1"
     inkscape:current-layer="svg4" />
  <path
     d="m 3.5807481,18.563051 c -0.097498,0.554989 0.4499914,0.988731 0.9324821,0.741236 l 5.4873948,-2.819946 5.486144,2.819946 c 0.482491,0.247495 1.029981,-0.186247 0.932482,-0.739986 l -1.03748,-5.912387 4.403666,-4.1949194 C 20.196679,8.0645022 19.982933,7.3470159 19.431694,7.2695174 L 13.309311,6.3995341 10.579363,0.99088784 a 0.6412377,0.6412377 0 0 0 -1.1587269,0 L 6.6906884,6.4007841 0.56830589,7.2707674 C 0.01706646,7.3482659 -0.19667944,8.0657521 0.21456267,8.4582446 L 4.6182282,12.653164 3.5807481,18.565551 Z M 9.7118805,15.104367 5.1044689,17.471822 5.9719522,12.525667 A 0.70623645,0.70623645 0 0 0 5.7682061,11.894429 L 2.1357758,8.4319951 7.2006787,7.7120089 A 0.65623741,0.65623741 0 0 0 7.6919192,7.3520158 L 10.000625,2.7796035 12.30808,7.3520158 a 0.65623741,0.65623741 0 0 0 0.491241,0.3599931 l 5.064903,0.7187362 -3.632431,3.4624339 a 0.70498648,0.70498648 0 0 0 -0.203746,0.632488 l 0.867484,4.946155 -4.607412,-2.367455 a 0.62873794,0.62873794 0 0 0 -0.5762385,0 z"
     id="path2"
     style="fill:#ffde59;fill-opacity:1;stroke-width:1.24998" />
</svg>
