<?xml version="1.0" encoding="UTF-8" standalone="no"?>
<svg
   xmlns:dc="http://purl.org/dc/elements/1.1/"
   xmlns:cc="http://creativecommons.org/ns#"
   xmlns:rdf="http://www.w3.org/1999/02/22-rdf-syntax-ns#"
   xmlns:svg="http://www.w3.org/2000/svg"
   xmlns="http://www.w3.org/2000/svg"
   xmlns:sodipodi="http://sodipodi.sourceforge.net/DTD/sodipodi-0.dtd"
   xmlns:inkscape="http://www.inkscape.org/namespaces/inkscape"
   width="25"
   height="25"
   fill="currentColor"
   class="bi bi-trash"
   viewBox="0 0 25 25"
   version="1.1"
   id="svg6"
   sodipodi:docname="trash-blue-25px.svg"
   inkscape:version="1.0.2 (e86c870879, 2021-01-15, custom)">
  <metadata
     id="metadata12">
    <rdf:RDF>
      <cc:Work
         rdf:about="">
        <dc:format>image/svg+xml</dc:format>
        <dc:type
           rdf:resource="http://purl.org/dc/dcmitype/StillImage" />
        <dc:title></dc:title>
      </cc:Work>
    </rdf:RDF>
  </metadata>
  <defs
     id="defs10" />
  <sodipodi:namedview
     pagecolor="#ffffff"
     bordercolor="#666666"
     borderopacity="1"
     objecttolerance="10"
     gridtolerance="10"
     guidetolerance="10"
     inkscape:pageopacity="0"
     inkscape:pageshadow="2"
     inkscape:window-width="1920"
     inkscape:window-height="1001"
     id="namedview8"
     showgrid="false"
     inkscape:zoom="25.9375"
     inkscape:cx="4.6817892"
     inkscape:cy="15.772321"
     inkscape:window-x="-9"
     inkscape:window-y="41"
     inkscape:window-maximized="1"
     inkscape:current-layer="svg6" />
  <path
     d="M 8.3333334,9.1666666 A 0.83333334,0.83333334 0 0 1 9.1666668,10 V 20 A 0.83333334,0.83333334 0 0 1 7.5000002,20 V 10 A 0.83333334,0.83333334 0 0 1 8.3333334,9.1666666 Z m 4.1666676,0 A 0.83333334,0.83333334 0 0 1 13.333333,10 v 10 a 0.83333344,0.83333344 0 0 1 -1.666666,0 V 10 a 0.83333334,0.83333334 0 0 1 0.833334,-0.8333334 z m 5,0.8333334 a 0.833334,0.833334 0 0 0 -1.666668,0 v 10 a 0.833334,0.833334 0 0 0 1.666668,0 z"
     id="path2"
     style="fill:#5271ff;fill-opacity:1;stroke-width:1.66666" />
  <path
     fill-rule="evenodd"
     d="M 23.333333,5 A 1.6666666,1.6666666 0 0 1 21.666667,6.6666666 H 20.833333 V 21.666666 A 3.3333334,3.3333334 0 0 1 17.500001,25 H 7.5000002 A 3.3333334,3.3333334 0 0 1 4.1666668,21.666666 V 6.6666666 H 3.3333334 A 1.6666666,1.6666666 0 0 1 1.6666668,5 V 3.3333334 A 1.6666666,1.6666666 0 0 1 3.3333334,1.6666666 H 9.1666668 A 1.6666666,1.6666666 0 0 1 10.833333,0 h 3.333334 a 1.6666666,1.6666666 0 0 1 1.666666,1.6666666 h 5.833334 a 1.6666666,1.6666666 0 0 1 1.666666,1.6666668 z M 6.0300002,6.6666666 5.8333334,6.765 v 14.901666 a 1.6666666,1.6666666 0 0 0 1.6666668,1.666668 H 17.500001 a 1.6666666,1.6666666 0 0 0 1.666666,-1.666668 V 6.765 L 18.970001,6.6666666 Z M 3.3333334,5 V 3.3333334 H 21.666667 V 5 Z"
     id="path4"
     style="fill:#5271ff;fill-opacity:1;stroke-width:1.66666" />
</svg>
