<?xml version="1.0" encoding="UTF-8" standalone="no"?>
<svg
   xmlns:dc="http://purl.org/dc/elements/1.1/"
   xmlns:cc="http://creativecommons.org/ns#"
   xmlns:rdf="http://www.w3.org/1999/02/22-rdf-syntax-ns#"
   xmlns:svg="http://www.w3.org/2000/svg"
   xmlns="http://www.w3.org/2000/svg"
   xmlns:sodipodi="http://sodipodi.sourceforge.net/DTD/sodipodi-0.dtd"
   xmlns:inkscape="http://www.inkscape.org/namespaces/inkscape"
   width="20"
   height="20"
   fill="currentColor"
   class="bi bi-trash"
   viewBox="0 0 20 20"
   version="1.1"
   id="svg6"
   sodipodi:docname="trash-blue-20px.svg"
   inkscape:version="1.0.2 (e86c870879, 2021-01-15, custom)">
  <metadata
     id="metadata12">
    <rdf:RDF>
      <cc:Work
         rdf:about="">
        <dc:format>image/svg+xml</dc:format>
        <dc:type
           rdf:resource="http://purl.org/dc/dcmitype/StillImage" />
        <dc:title></dc:title>
      </cc:Work>
    </rdf:RDF>
  </metadata>
  <defs
     id="defs10" />
  <sodipodi:namedview
     pagecolor="#ffffff"
     bordercolor="#666666"
     borderopacity="1"
     objecttolerance="10"
     gridtolerance="10"
     guidetolerance="10"
     inkscape:pageopacity="0"
     inkscape:pageshadow="2"
     inkscape:window-width="1920"
     inkscape:window-height="1001"
     id="namedview8"
     showgrid="false"
     inkscape:zoom="25.9375"
     inkscape:cx="4.6817892"
     inkscape:cy="11.145815"
     inkscape:window-x="-9"
     inkscape:window-y="41"
     inkscape:window-maximized="1"
     inkscape:current-layer="svg6" />
  <path
     d="M 6.6666668,7.3333333 A 0.66666667,0.66666667 0 0 1 7.3333335,8 v 8 A 0.66666667,0.66666667 0 0 1 6.0000002,16 V 8 A 0.66666667,0.66666667 0 0 1 6.6666668,7.3333333 Z m 3.3333342,0 A 0.66666667,0.66666667 0 0 1 10.666667,8 v 8 A 0.66666667,0.66666667 0 0 1 9.3333335,16 V 8 A 0.66666667,0.66666667 0 0 1 10.000001,7.3333333 Z m 4,0.6666667 a 0.666667,0.666667 0 0 0 -1.333334,0 v 8 a 0.666667,0.666667 0 0 0 1.333334,0 z"
     id="path2"
     style="stroke-width:1.33333;fill:#5271ff;fill-opacity:1" />
  <path
     fill-rule="evenodd"
     d="M 18.666667,4 A 1.3333333,1.3333333 0 0 1 17.333334,5.3333333 H 16.666667 V 17.333333 A 2.6666667,2.6666667 0 0 1 14.000001,20 H 6.0000002 A 2.6666667,2.6666667 0 0 1 3.3333335,17.333333 V 5.3333333 H 2.6666668 A 1.3333333,1.3333333 0 0 1 1.3333335,4 V 2.6666667 A 1.3333333,1.3333333 0 0 1 2.6666668,1.3333333 H 7.3333335 A 1.3333333,1.3333333 0 0 1 8.6666668,0 h 2.6666672 a 1.3333333,1.3333333 0 0 1 1.333333,1.3333333 h 4.666667 a 1.3333333,1.3333333 0 0 1 1.333333,1.3333334 z M 4.8240002,5.3333333 4.6666668,5.412 v 11.921333 a 1.3333333,1.3333333 0 0 0 1.3333334,1.333334 h 8.0000008 a 1.3333333,1.3333333 0 0 0 1.333333,-1.333334 V 5.412 L 15.176001,5.3333333 Z M 2.6666668,4 V 2.6666667 H 17.333334 V 4 Z"
     id="path4"
     style="stroke-width:1.33333;fill:#5271ff;fill-opacity:1" />
</svg>
