<?xml version="1.0" encoding="UTF-8" standalone="no"?>
<svg
   xmlns:dc="http://purl.org/dc/elements/1.1/"
   xmlns:cc="http://creativecommons.org/ns#"
   xmlns:rdf="http://www.w3.org/1999/02/22-rdf-syntax-ns#"
   xmlns:svg="http://www.w3.org/2000/svg"
   xmlns="http://www.w3.org/2000/svg"
   xmlns:sodipodi="http://sodipodi.sourceforge.net/DTD/sodipodi-0.dtd"
   xmlns:inkscape="http://www.inkscape.org/namespaces/inkscape"
   width="30"
   height="30"
   fill="currentColor"
   class="bi bi-trash-fill"
   viewBox="0 0 30 30"
   version="1.1"
   id="svg4"
   sodipodi:docname="trash-fill-blue-30px.svg"
   inkscape:version="1.0.2 (e86c870879, 2021-01-15, custom)">
  <metadata
     id="metadata10">
    <rdf:RDF>
      <cc:Work
         rdf:about="">
        <dc:format>image/svg+xml</dc:format>
        <dc:type
           rdf:resource="http://purl.org/dc/dcmitype/StillImage" />
        <dc:title></dc:title>
      </cc:Work>
    </rdf:RDF>
  </metadata>
  <defs
     id="defs8" />
  <sodipodi:namedview
     pagecolor="#ffffff"
     bordercolor="#666666"
     borderopacity="1"
     objecttolerance="10"
     gridtolerance="10"
     guidetolerance="10"
     inkscape:pageopacity="0"
     inkscape:pageshadow="2"
     inkscape:window-width="1920"
     inkscape:window-height="1001"
     id="namedview6"
     showgrid="false"
     inkscape:zoom="25.9375"
     inkscape:cx="4.1431179"
     inkscape:cy="12.701748"
     inkscape:window-x="-9"
     inkscape:window-y="41"
     inkscape:window-maximized="1"
     inkscape:current-layer="svg4" />
  <path
     d="M 4.0000006,1.9999999 A 1.9999999,1.9999999 0 0 0 2.0000007,4.0000001 V 6 A 1.9999999,1.9999999 0 0 0 4.0000006,7.9999999 H 5.0000007 V 25.999999 a 4.0000001,4.0000001 0 0 0 4,4.000001 H 21.000002 A 4.0000001,4.0000001 0 0 0 25,25.999999 V 7.9999999 h 1.000001 A 1.9999999,1.9999999 0 0 0 27.999999,6 V 4.0000001 A 1.9999999,1.9999999 0 0 0 26.000001,1.9999999 H 19 A 1.9999999,1.9999999 0 0 0 17.000001,0 H 13 A 1.9999999,1.9999999 0 0 0 11,1.9999999 Z M 10.000001,10 A 1,1 0 0 1 11,11 v 14.000001 a 1,1 0 0 1 -1.9999992,0 V 11 a 1,1 0 0 1 1.0000002,-1 z m 5.000001,0 A 1,1 0 0 1 16,11 v 14.000001 a 1,1 0 0 1 -1.999999,0 V 11 a 1,1 0 0 1 1.000001,-1 z m 6,1 v 14.000001 a 1.000001,1.000001 0 0 1 -2.000002,0 V 11 a 1.000001,1.000001 0 0 1 2.000002,0 z"
     id="path2"
     style="fill:#5271ff;fill-opacity:1;stroke-width:1.99999" />
</svg>
