<?xml version="1.0" encoding="UTF-8" standalone="no"?>
<svg
   xmlns:dc="http://purl.org/dc/elements/1.1/"
   xmlns:cc="http://creativecommons.org/ns#"
   xmlns:rdf="http://www.w3.org/1999/02/22-rdf-syntax-ns#"
   xmlns:svg="http://www.w3.org/2000/svg"
   xmlns="http://www.w3.org/2000/svg"
   xmlns:sodipodi="http://sodipodi.sourceforge.net/DTD/sodipodi-0.dtd"
   xmlns:inkscape="http://www.inkscape.org/namespaces/inkscape"
   width="20"
   height="20"
   fill="currentColor"
   class="bi bi-trash-fill"
   viewBox="0 0 20 20"
   version="1.1"
   id="svg4"
   sodipodi:docname="trash-fill-blue-20px.svg"
   inkscape:version="1.0.2 (e86c870879, 2021-01-15, custom)">
  <metadata
     id="metadata10">
    <rdf:RDF>
      <cc:Work
         rdf:about="">
        <dc:format>image/svg+xml</dc:format>
        <dc:type
           rdf:resource="http://purl.org/dc/dcmitype/StillImage" />
        <dc:title></dc:title>
      </cc:Work>
    </rdf:RDF>
  </metadata>
  <defs
     id="defs8" />
  <sodipodi:namedview
     pagecolor="#ffffff"
     bordercolor="#666666"
     borderopacity="1"
     objecttolerance="10"
     gridtolerance="10"
     guidetolerance="10"
     inkscape:pageopacity="0"
     inkscape:pageshadow="2"
     inkscape:window-width="1920"
     inkscape:window-height="1001"
     id="namedview6"
     showgrid="false"
     inkscape:zoom="25.9375"
     inkscape:cx="4.1431179"
     inkscape:cy="6.5330732"
     inkscape:window-x="-9"
     inkscape:window-y="41"
     inkscape:window-maximized="1"
     inkscape:current-layer="svg4" />
  <path
     d="M 2.6666671,1.3333333 A 1.3333333,1.3333333 0 0 0 1.3333338,2.6666667 V 4 A 1.3333333,1.3333333 0 0 0 2.6666671,5.3333333 H 3.3333338 V 17.333333 A 2.6666667,2.6666667 0 0 0 6.0000004,20 h 8.0000006 a 2.6666667,2.6666667 0 0 0 2.666666,-2.666667 V 5.3333333 h 0.666667 A 1.3333333,1.3333333 0 0 0 18.666666,4 V 2.6666667 A 1.3333333,1.3333333 0 0 0 17.333334,1.3333333 H 12.666667 A 1.3333333,1.3333333 0 0 0 11.333334,0 H 8.6666671 A 1.3333333,1.3333333 0 0 0 7.3333338,1.3333333 Z M 6.666667,6.6666667 a 0.66666667,0.66666667 0 0 1 0.6666668,0.6666666 v 9.3333337 a 0.66666667,0.66666667 0 0 1 -1.3333333,0 V 7.3333333 A 0.66666667,0.66666667 0 0 1 6.666667,6.6666667 Z m 3.333334,0 a 0.66666667,0.66666667 0 0 1 0.666666,0.6666666 v 9.3333337 a 0.66666667,0.66666667 0 0 1 -1.3333333,0 V 7.3333333 A 0.66666667,0.66666667 0 0 1 10.000001,6.6666667 Z m 4,0.6666666 v 9.3333337 a 0.666667,0.666667 0 0 1 -1.333334,0 V 7.3333333 a 0.666667,0.666667 0 0 1 1.333334,0 z"
     id="path2"
     style="fill:#5271ff;fill-opacity:1;stroke-width:1.33333" />
</svg>
