<?xml version="1.0" encoding="UTF-8" standalone="no"?>
<svg
   xmlns:dc="http://purl.org/dc/elements/1.1/"
   xmlns:cc="http://creativecommons.org/ns#"
   xmlns:rdf="http://www.w3.org/1999/02/22-rdf-syntax-ns#"
   xmlns:svg="http://www.w3.org/2000/svg"
   xmlns="http://www.w3.org/2000/svg"
   xmlns:sodipodi="http://sodipodi.sourceforge.net/DTD/sodipodi-0.dtd"
   xmlns:inkscape="http://www.inkscape.org/namespaces/inkscape"
   width="30"
   height="30"
   fill="currentColor"
   class="bi bi-trash"
   viewBox="0 0 30 30"
   version="1.1"
   id="svg6"
   sodipodi:docname="trash-blue-30px.svg"
   inkscape:version="1.0.2 (e86c870879, 2021-01-15, custom)">
  <metadata
     id="metadata12">
    <rdf:RDF>
      <cc:Work
         rdf:about="">
        <dc:format>image/svg+xml</dc:format>
        <dc:type
           rdf:resource="http://purl.org/dc/dcmitype/StillImage" />
        <dc:title></dc:title>
      </cc:Work>
    </rdf:RDF>
  </metadata>
  <defs
     id="defs10" />
  <sodipodi:namedview
     pagecolor="#ffffff"
     bordercolor="#666666"
     borderopacity="1"
     objecttolerance="10"
     gridtolerance="10"
     guidetolerance="10"
     inkscape:pageopacity="0"
     inkscape:pageshadow="2"
     inkscape:window-width="1920"
     inkscape:window-height="1001"
     id="namedview8"
     showgrid="false"
     inkscape:zoom="25.9375"
     inkscape:cx="4.6817892"
     inkscape:cy="14.230153"
     inkscape:window-x="-9"
     inkscape:window-y="41"
     inkscape:window-maximized="1"
     inkscape:current-layer="svg6" />
  <path
     d="m 10,11 a 1,1 0 0 1 1.000001,1 V 24 A 1.0000001,1.0000001 0 0 1 9.0000005,24 V 12 A 1,1 0 0 1 10,11 Z m 5.000002,0 A 1,1 0 0 1 16,12 v 12 a 1.0000001,1.0000001 0 0 1 -1.999999,0 V 12 a 1,1 0 0 1 1.000001,-1 z m 6,1 A 1.000001,1.000001 0 0 0 19,12 v 12 a 1.000001,1.000001 0 0 0 2.000002,0 z"
     id="path2"
     style="fill:#5271ff;fill-opacity:1;stroke-width:1.99999" />
  <path
     fill-rule="evenodd"
     d="M 28,6 A 1.9999999,1.9999999 0 0 1 26.000001,7.9999999 H 25 V 25.999999 A 4.0000001,4.0000001 0 0 1 21.000002,30 H 9.0000005 A 4.0000001,4.0000001 0 0 1 5.0000004,25.999999 V 7.9999999 H 4.0000003 A 1.9999999,1.9999999 0 0 1 2.0000004,6 V 4.0000001 A 1.9999999,1.9999999 0 0 1 4.0000003,1.9999999 H 11.000001 A 1.9999999,1.9999999 0 0 1 13,0 h 4.000001 A 1.9999999,1.9999999 0 0 1 19,1.9999999 h 7.000001 A 1.9999999,1.9999999 0 0 1 28,4.0000001 Z M 7.2360005,7.9999999 7.0000003,8.118 v 17.881999 a 1.9999999,1.9999999 0 0 0 2.0000002,2.000002 H 21.000002 a 1.9999999,1.9999999 0 0 0 1.999999,-2.000002 V 8.118 L 22.764002,7.9999999 Z M 4.0000003,6 V 4.0000001 H 26.000001 V 6 Z"
     id="path4"
     style="fill:#5271ff;fill-opacity:1;stroke-width:1.99999" />
</svg>
