<?xml version="1.0" encoding="UTF-8" standalone="no"?>
<svg
   xmlns:dc="http://purl.org/dc/elements/1.1/"
   xmlns:cc="http://creativecommons.org/ns#"
   xmlns:rdf="http://www.w3.org/1999/02/22-rdf-syntax-ns#"
   xmlns:svg="http://www.w3.org/2000/svg"
   xmlns="http://www.w3.org/2000/svg"
   xmlns:sodipodi="http://sodipodi.sourceforge.net/DTD/sodipodi-0.dtd"
   xmlns:inkscape="http://www.inkscape.org/namespaces/inkscape"
   width="25"
   height="25"
   fill="currentColor"
   class="bi bi-trash-fill"
   viewBox="0 0 25 25"
   version="1.1"
   id="svg4"
   sodipodi:docname="trash-fill-blue-25px.svg"
   inkscape:version="1.0.2 (e86c870879, 2021-01-15, custom)">
  <metadata
     id="metadata10">
    <rdf:RDF>
      <cc:Work
         rdf:about="">
        <dc:format>image/svg+xml</dc:format>
        <dc:type
           rdf:resource="http://purl.org/dc/dcmitype/StillImage" />
        <dc:title></dc:title>
      </cc:Work>
    </rdf:RDF>
  </metadata>
  <defs
     id="defs8" />
  <sodipodi:namedview
     pagecolor="#ffffff"
     bordercolor="#666666"
     borderopacity="1"
     objecttolerance="10"
     gridtolerance="10"
     guidetolerance="10"
     inkscape:pageopacity="0"
     inkscape:pageshadow="2"
     inkscape:window-width="1920"
     inkscape:window-height="1001"
     id="namedview6"
     showgrid="false"
     inkscape:zoom="25.9375"
     inkscape:cx="4.1431179"
     inkscape:cy="20.412591"
     inkscape:window-x="-9"
     inkscape:window-y="41"
     inkscape:window-maximized="1"
     inkscape:current-layer="svg4" />
  <path
     d="M 3.333334,1.6666666 A 1.6666666,1.6666666 0 0 0 1.6666674,3.3333334 V 5 A 1.6666666,1.6666666 0 0 0 3.333334,6.6666666 H 4.1666674 V 21.666666 A 3.3333334,3.3333334 0 0 0 7.5000007,25 H 17.500002 a 3.3333334,3.3333334 0 0 0 3.333332,-3.333334 V 6.6666666 h 0.833334 A 1.6666666,1.6666666 0 0 0 23.333333,5 V 3.3333334 A 1.6666666,1.6666666 0 0 0 21.666668,1.6666666 H 15.833334 A 1.6666666,1.6666666 0 0 0 14.166668,0 H 10.833334 A 1.6666666,1.6666666 0 0 0 9.1666674,1.6666666 Z M 8.3333339,8.3333334 A 0.83333334,0.83333334 0 0 1 9.1666674,9.1666666 V 20.833334 a 0.83333334,0.83333334 0 0 1 -1.6666666,0 V 9.1666666 A 0.83333334,0.83333334 0 0 1 8.3333339,8.3333334 Z m 4.1666681,0 a 0.83333334,0.83333334 0 0 1 0.833332,0.8333332 V 20.833334 a 0.83333334,0.83333334 0 0 1 -1.666666,0 V 9.1666666 a 0.83333334,0.83333334 0 0 1 0.833334,-0.8333332 z m 5,0.8333332 V 20.833334 a 0.833334,0.833334 0 0 1 -1.666668,0 V 9.1666666 a 0.833334,0.833334 0 0 1 1.666668,0 z"
     id="path2"
     style="fill:#5271ff;fill-opacity:1;stroke-width:1.66666" />
</svg>
