<?xml version="1.0" encoding="UTF-8" standalone="no"?>
<svg
   xmlns:dc="http://purl.org/dc/elements/1.1/"
   xmlns:cc="http://creativecommons.org/ns#"
   xmlns:rdf="http://www.w3.org/1999/02/22-rdf-syntax-ns#"
   xmlns:svg="http://www.w3.org/2000/svg"
   xmlns="http://www.w3.org/2000/svg"
   xmlns:sodipodi="http://sodipodi.sourceforge.net/DTD/sodipodi-0.dtd"
   xmlns:inkscape="http://www.inkscape.org/namespaces/inkscape"
   width="14"
   height="14"
   fill="currentColor"
   class="bi bi-x-circle"
   viewBox="0 0 14 14"
   version="1.1"
   id="svg6"
   sodipodi:docname="x-circle-FF5757-Orange-14px.svg"
   inkscape:version="1.0.2 (e86c870879, 2021-01-15, custom)">
  <metadata
     id="metadata12">
    <rdf:RDF>
      <cc:Work
         rdf:about="">
        <dc:format>image/svg+xml</dc:format>
        <dc:type
           rdf:resource="http://purl.org/dc/dcmitype/StillImage" />
        <dc:title></dc:title>
      </cc:Work>
    </rdf:RDF>
  </metadata>
  <defs
     id="defs10" />
  <sodipodi:namedview
     pagecolor="#ffffff"
     bordercolor="#666666"
     borderopacity="1"
     objecttolerance="10"
     gridtolerance="10"
     guidetolerance="10"
     inkscape:pageopacity="0"
     inkscape:pageshadow="2"
     inkscape:window-width="1920"
     inkscape:window-height="1001"
     id="namedview8"
     showgrid="false"
     inkscape:zoom="51.875"
     inkscape:cx="9.2379504"
     inkscape:cy="6.9723703"
     inkscape:window-x="-9"
     inkscape:window-y="41"
     inkscape:window-maximized="1"
     inkscape:current-layer="svg6" />
  <path
     d="M 7,13.125 A 6.125,6.125 0 1 1 7,0.875 6.125,6.125 0 0 1 7,13.125 Z M 7,14 A 7,7 0 1 0 7,0 7,7 0 0 0 7,14 Z"
     id="path2"
     style="fill:#ff5757;fill-opacity:1;stroke-width:0.875" />
  <path
     d="m 4.06525,4.06525 a 0.4375,0.4375 0 0 1 0.6195,0 L 7,6.381375 9.31525,4.06525 a 0.43805265,0.43805265 0 0 1 0.6195,0.6195 L 7.618625,7 9.93475,9.31525 a 0.43805265,0.43805265 0 0 1 -0.6195,0.6195 L 7,7.618625 4.68475,9.93475 A 0.43805265,0.43805265 0 0 1 4.06525,9.31525 L 6.381375,7 4.06525,4.68475 a 0.4375,0.4375 0 0 1 0,-0.6195 z"
     id="path4"
     style="fill:#ff5757;fill-opacity:1;stroke-width:0.875" />
</svg>
